<svg xmlns="http://www.w3.org/2000/svg" width="802" height="515" viewBox="0 0 802 515">
<path d="M178.00,34.00 L177.00,35.00 L177.00,36.00 L177.00,37.00 L177.00,38.00 L177.00,39.00 L177.00,40.00 L177.00,41.00" fill="none" stroke="black" stroke-width="10" stroke-linecap="round" stroke-linejoin="round"/>
<path d="M192.00,34.00 L191.00,35.00 L191.00,36.00 L191.00,37.00 L191.00,38.00 L191.00,39.00 L191.00,40.00" fill="none" stroke="black" stroke-width="10" stroke-linecap="round" stroke-linejoin="round"/>
<path d="M202.00,136.00 L201.00,136.00" fill="none" stroke="black" stroke-width="10" stroke-linecap="round" stroke-linejoin="round"/>
<path d="M760.00,194.00 L761.00,193.00 L761.00,192.00 L761.00,191.00 L761.00,190.00 L761.00,189.00" fill="none" stroke="black" stroke-width="10" stroke-linecap="round" stroke-linejoin="round"/>
<path d="M201.00,127.00 L200.00,128.00 L200.00,129.00 L200.00,130.00 L200.00,131.00 L200.00,132.00 L200.00,133.00 L200.00,134.00 L200.00,135.00" fill="none" stroke="black" stroke-width="10" stroke-linecap="round" stroke-linejoin="round"/>
<path d="M247.00,277.00 L246.00,277.00 L245.00,277.00 L244.00,277.00 L243.00,277.00" fill="none" stroke="black" stroke-width="10" stroke-linecap="round" stroke-linejoin="round"/>
<path d="M266.00,329.00 L265.00,329.00 L264.00,329.00 L263.00,329.00 L262.00,329.00 L261.00,329.00" fill="none" stroke="black" stroke-width="10" stroke-linecap="round" stroke-linejoin="round"/>
<path d="M784.00,167.00 L783.00,167.00 L782.00,168.00 L781.00,168.00 L780.00,168.00 L779.00,168.00 L778.00,168.00 L777.00,168.00 L776.00,168.00" fill="none" stroke="black" stroke-width="10" stroke-linecap="round" stroke-linejoin="round"/>
<path d="M33.00,495.00 L34.00,495.00 L35.00,495.00 L36.00,495.00 L37.00,495.00 L38.00,495.00 L39.00,495.00 L40.00,495.00" fill="none" stroke="black" stroke-width="10" stroke-linecap="round" stroke-linejoin="round"/>
<path d="M191.00,40.00 L190.00,41.00" fill="none" stroke="black" stroke-width="10" stroke-linecap="round" stroke-linejoin="round"/>
<path d="M191.00,40.00 L191.00,41.00" fill="none" stroke="black" stroke-width="10" stroke-linecap="round" stroke-linejoin="round"/>
<path d="M191.00,40.00 L192.00,41.00" fill="none" stroke="black" stroke-width="10" stroke-linecap="round" stroke-linejoin="round"/>
<path d="M177.00,41.00 L177.00,42.00" fill="none" stroke="black" stroke-width="10" stroke-linecap="round" stroke-linejoin="round"/>
<path d="M177.00,41.00 L178.00,42.00" fill="none" stroke="black" stroke-width="10" stroke-linecap="round" stroke-linejoin="round"/>
<path d="M179.00,41.00 L180.00,41.00 L181.00,41.00 L182.00,41.00 L183.00,41.00 L184.00,41.00 L185.00,41.00 L186.00,41.00 L187.00,41.00 L188.00,41.00 L189.00,41.00 L190.00,41.00" fill="none" stroke="black" stroke-width="10" stroke-linecap="round" stroke-linejoin="round"/>
<path d="M179.00,41.00 L178.00,42.00" fill="none" stroke="black" stroke-width="10" stroke-linecap="round" stroke-linejoin="round"/>
<path d="M190.00,41.00 L191.00,41.00" fill="none" stroke="black" stroke-width="10" stroke-linecap="round" stroke-linejoin="round"/>
<path d="M191.00,41.00 L192.00,41.00" fill="none" stroke="black" stroke-width="10" stroke-linecap="round" stroke-linejoin="round"/>
<path d="M192.00,41.00 L193.00,42.00 L193.00,43.00 L193.00,44.00 L193.00,45.00 L193.00,46.00 L194.00,47.00 L195.00,48.00 L196.00,49.00 L197.00,50.00 L198.00,51.00 L198.00,52.00 L198.00,53.00 L198.00,54.00 L198.00,55.00 L199.00,56.00 L200.00,57.00 L201.00,58.00 L202.00,59.00 L202.00,60.00 L202.00,61.00 L202.00,62.00 L202.00,63.00 L202.00,64.00 L202.00,65.00 L203.00,66.00 L204.00,67.00 L205.00,68.00 L206.00,69.00 L207.00,70.00 L207.00,71.00 L207.00,72.00 L207.00,73.00 L207.00,74.00 L208.00,75.00 L209.00,76.00 L210.00,77.00 L211.00,78.00 L212.00,79.00 L212.00,80.00 L212.00,81.00 L212.00,82.00 L212.00,83.00 L213.00,84.00 L214.00,85.00 L215.00,86.00 L216.00,87.00 L216.00,88.00 L216.00,89.00 L216.00,90.00 L216.00,91.00 L216.00,92.00 L216.00,93.00 L217.00,94.00 L218.00,95.00 L219.00,96.00 L220.00,97.00 L221.00,98.00 L221.00,99.00 L221.00,100.00 L221.00,101.00 L221.00,102.00 L222.00,103.00 L223.00,104.00 L224.00,105.00 L225.00,106.00 L226.00,107.00 L226.00,108.00 L226.00,109.00 L226.00,110.00 L226.00,111.00 L227.00,112.00 L228.00,113.00 L229.00,114.00 L230.00,115.00 L230.00,116.00 L230.00,117.00 L230.00,118.00 L230.00,119.00 L230.00,120.00 L230.00,121.00 L231.00,122.00 L232.00,123.00 L233.00,124.00 L234.00,125.00 L235.00,126.00 L235.00,127.00 L235.00,128.00 L235.00,129.00 L235.00,130.00 L236.00,131.00 L237.00,132.00 L238.00,133.00 L239.00,134.00 L240.00,135.00 L240.00,136.00 L240.00,137.00 L240.00,138.00 L240.00,139.00 L241.00,140.00 L242.00,141.00 L242.00,142.00 L242.00,143.00 L242.00,144.00 L242.00,145.00 L242.00,146.00 L243.00,147.00 L244.00,148.00 L244.00,149.00 L244.00,150.00 L244.00,151.00 L244.00,152.00 L244.00,153.00 L245.00,154.00 L246.00,155.00 L246.00,156.00 L247.00,157.00 L248.00,158.00 L249.00,159.00 L249.00,160.00 L249.00,161.00 L249.00,162.00 L249.00,163.00 L250.00,164.00 L251.00,165.00 L252.00,166.00 L253.00,167.00 L254.00,168.00 L254.00,169.00 L254.00,170.00 L254.00,171.00 L254.00,172.00 L255.00,173.00 L256.00,174.00 L257.00,175.00 L258.00,176.00 L258.00,177.00 L258.00,178.00 L258.00,179.00 L258.00,180.00 L258.00,181.00 L258.00,182.00 L259.00,183.00 L260.00,184.00 L260.00,185.00 L260.00,186.00 L260.00,187.00 L260.00,188.00 L261.00,189.00 L262.00,190.00 L263.00,191.00 L263.00,192.00 L263.00,193.00 L263.00,194.00 L263.00,195.00 L263.00,196.00 L264.00,197.00 L265.00,198.00 L266.00,199.00 L267.00,200.00 L268.00,201.00 L268.00,202.00 L268.00,203.00 L268.00,204.00 L268.00,205.00 L269.00,206.00 L270.00,207.00 L270.00,208.00 L270.00,209.00 L270.00,210.00 L270.00,211.00 L270.00,212.00 L271.00,213.00 L272.00,214.00 L272.00,215.00 L272.00,216.00 L272.00,217.00 L272.00,218.00 L272.00,219.00 L273.00,220.00 L274.00,221.00 L274.00,222.00 L274.00,223.00 L274.00,224.00 L274.00,225.00 L274.00,226.00 L275.00,227.00 L276.00,228.00 L277.00,229.00 L277.00,230.00 L277.00,231.00 L277.00,232.00 L277.00,233.00 L278.00,234.00 L279.00,235.00 L280.00,236.00 L281.00,237.00 L282.00,238.00 L282.00,239.00 L282.00,240.00 L282.00,241.00 L282.00,242.00 L283.00,243.00 L284.00,244.00 L284.00,245.00 L284.00,246.00 L284.00,247.00 L284.00,248.00 L284.00,249.00 L284.00,250.00 L284.00,251.00 L284.00,252.00 L284.00,253.00 L284.00,254.00 L285.00,255.00 L286.00,256.00 L286.00,257.00 L286.00,258.00 L286.00,259.00 L286.00,260.00 L286.00,261.00 L287.00,262.00 L288.00,263.00 L289.00,264.00 L289.00,265.00 L289.00,266.00 L289.00,267.00 L289.00,268.00 L289.00,269.00 L289.00,270.00 L289.00,271.00 L289.00,272.00 L289.00,273.00 L289.00,274.00 L289.00,275.00 L289.00,276.00 L289.00,277.00 L289.00,278.00 L290.00,279.00 L291.00,280.00 L292.00,281.00 L293.00,282.00 L293.00,283.00 L293.00,284.00 L293.00,285.00 L293.00,286.00 L294.00,287.00 L295.00,287.00 L296.00,287.00 L297.00,287.00 L298.00,288.00 L298.00,289.00 L298.00,290.00 L298.00,291.00 L298.00,292.00 L298.00,293.00 L298.00,294.00 L298.00,295.00 L298.00,296.00 L298.00,297.00 L298.00,298.00 L298.00,299.00 L298.00,300.00 L298.00,301.00 L299.00,302.00 L300.00,303.00 L301.00,303.00 L302.00,304.00 L303.00,305.00 L303.00,306.00 L303.00,307.00 L303.00,308.00 L303.00,309.00 L303.00,310.00 L303.00,311.00 L303.00,312.00 L303.00,313.00 L303.00,314.00 L303.00,315.00 L303.00,316.00 L303.00,317.00 L303.00,318.00 L303.00,319.00 L303.00,320.00 L303.00,321.00 L303.00,322.00 L303.00,323.00 L304.00,324.00 L305.00,324.00 L306.00,324.00 L307.00,325.00 L307.00,326.00 L307.00,327.00 L307.00,328.00 L307.00,329.00 L308.00,330.00 L309.00,331.00 L310.00,332.00 L310.00,333.00 L310.00,334.00 L310.00,335.00 L310.00,336.00 L311.00,337.00 L312.00,338.00 L312.00,339.00 L312.00,340.00 L312.00,341.00 L312.00,342.00 L312.00,343.00 L313.00,344.00 L314.00,345.00 L315.00,346.00 L315.00,347.00 L315.00,348.00 L315.00,349.00 L315.00,350.00 L316.00,351.00 L317.00,352.00 L317.00,353.00 L317.00,354.00 L317.00,355.00 L317.00,356.00 L317.00,357.00 L317.00,358.00 L317.00,359.00 L317.00,360.00 L317.00,361.00 L318.00,362.00 L319.00,363.00 L319.00,364.00 L319.00,365.00 L319.00,366.00 L319.00,367.00 L319.00,368.00 L319.00,369.00 L320.00,370.00 L321.00,371.00 L322.00,372.00 L323.00,373.00 L324.00,374.00 L324.00,375.00 L324.00,376.00 L324.00,377.00 L324.00,378.00 L325.00,379.00 L326.00,380.00 L326.00,381.00 L326.00,382.00 L326.00,383.00 L326.00,384.00 L326.00,385.00 L327.00,386.00 L328.00,387.00 L329.00,388.00 L329.00,389.00 L329.00,390.00 L329.00,391.00 L329.00,392.00 L330.00,393.00 L331.00,394.00 L331.00,395.00 L331.00,396.00 L331.00,397.00 L331.00,398.00 L331.00,399.00 L332.00,400.00 L333.00,401.00 L333.00,402.00 L333.00,403.00 L333.00,404.00 L333.00,405.00 L333.00,406.00 L334.00,407.00 L335.00,408.00 L335.00,409.00 L335.00,410.00 L335.00,411.00 L335.00,412.00 L335.00,413.00 L335.00,414.00 L335.00,415.00 L335.00,416.00 L335.00,417.00 L335.00,418.00 L335.00,419.00 L335.00,420.00 L335.00,421.00 L335.00,422.00 L336.00,423.00 L337.00,424.00 L338.00,425.00 L338.00,426.00 L338.00,427.00 L338.00,428.00 L338.00,429.00 L338.00,430.00 L339.00,431.00 L340.00,432.00 L340.00,433.00 L340.00,434.00 L340.00,435.00 L340.00,436.00 L340.00,437.00 L340.00,438.00 L340.00,439.00 L340.00,440.00 L340.00,441.00 L341.00,442.00 L342.00,443.00 L343.00,444.00 L343.00,445.00 L343.00,446.00 L343.00,447.00 L343.00,448.00 L344.00,449.00 L345.00,450.00 L345.00,451.00 L345.00,452.00 L345.00,453.00 L345.00,454.00 L345.00,455.00 L345.00,456.00 L345.00,457.00 L345.00,458.00 L345.00,459.00 L345.00,460.00 L345.00,461.00 L345.00,462.00 L345.00,463.00 L345.00,464.00 L346.00,465.00 L347.00,466.00 L347.00,467.00 L347.00,468.00 L347.00,469.00 L347.00,470.00 L347.00,471.00 L347.00,472.00 L348.00,473.00 L349.00,474.00 L349.00,475.00 L349.00,476.00 L349.00,477.00 L349.00,478.00 L349.00,479.00 L349.00,480.00 L349.00,481.00 L349.00,482.00 L349.00,483.00 L349.00,484.00 L349.00,485.00 L349.00,486.00 L349.00,487.00 L349.00,488.00 L349.00,489.00 L349.00,490.00 L349.00,491.00 L348.00,492.00 L347.00,492.00 L346.00,492.00 L345.00,492.00 L344.00,492.00 L343.00,492.00 L342.00,492.00 L341.00,492.00 L340.00,492.00 L339.00,492.00 L338.00,492.00 L337.00,492.00 L336.00,492.00 L335.00,492.00 L334.00,492.00 L333.00,492.00 L332.00,492.00 L331.00,492.00 L330.00,492.00 L329.00,492.00 L328.00,492.00 L327.00,492.00 L326.00,492.00 L325.00,492.00 L324.00,492.00 L323.00,492.00 L322.00,492.00 L321.00,492.00 L320.00,492.00 L319.00,492.00 L318.00,492.00 L317.00,492.00 L316.00,492.00 L315.00,492.00 L314.00,492.00 L313.00,492.00 L312.00,492.00 L311.00,492.00 L310.00,492.00 L309.00,492.00 L308.00,492.00 L307.00,492.00 L306.00,492.00 L305.00,492.00 L304.00,492.00 L303.00,492.00 L302.00,491.00 L301.00,490.00 L300.00,490.00 L299.00,490.00 L298.00,490.00 L297.00,490.00 L296.00,489.00 L296.00,488.00 L296.00,487.00 L296.00,486.00 L295.00,485.00 L294.00,484.00 L293.00,483.00 L293.00,482.00 L293.00,481.00 L293.00,480.00 L293.00,479.00 L293.00,478.00 L292.00,477.00 L291.00,476.00 L291.00,475.00 L291.00,474.00 L291.00,473.00 L291.00,472.00 L291.00,471.00 L290.00,470.00 L289.00,469.00 L289.00,468.00 L289.00,467.00 L289.00,466.00 L289.00,465.00 L288.00,464.00 L287.00,463.00 L286.00,462.00 L286.00,461.00 L286.00,460.00 L286.00,459.00 L286.00,458.00 L286.00,457.00 L285.00,456.00 L284.00,455.00 L284.00,454.00 L284.00,453.00 L284.00,452.00 L284.00,451.00 L284.00,450.00 L284.00,449.00 L284.00,448.00 L284.00,447.00 L284.00,446.00 L284.00,445.00 L284.00,444.00 L284.00,443.00 L284.00,442.00 L284.00,441.00 L284.00,440.00 L284.00,439.00 L284.00,438.00 L284.00,437.00 L284.00,436.00 L283.00,435.00 L282.00,434.00 L282.00,433.00 L282.00,432.00 L282.00,431.00 L282.00,430.00 L281.00,429.00 L280.00,428.00 L279.00,427.00 L279.00,426.00 L279.00,425.00 L279.00,424.00 L279.00,423.00 L279.00,422.00 L279.00,421.00 L279.00,420.00 L279.00,419.00 L279.00,418.00 L279.00,417.00 L279.00,416.00 L279.00,415.00 L279.00,414.00 L279.00,413.00 L279.00,412.00 L279.00,411.00 L279.00,410.00 L279.00,409.00 L279.00,408.00 L279.00,407.00 L279.00,406.00 L279.00,405.00 L279.00,404.00 L278.00,403.00 L277.00,402.00 L277.00,401.00 L277.00,400.00 L277.00,399.00 L277.00,398.00 L277.00,397.00 L276.00,396.00 L275.00,395.00 L274.00,394.00 L274.00,393.00 L274.00,392.00 L274.00,391.00 L274.00,390.00 L274.00,389.00 L274.00,388.00 L274.00,387.00 L274.00,386.00 L274.00,385.00 L274.00,384.00 L274.00,383.00 L274.00,382.00 L274.00,381.00 L274.00,380.00 L274.00,379.00 L274.00,378.00 L274.00,377.00 L274.00,376.00 L274.00,375.00 L273.00,374.00 L272.00,373.00 L272.00,372.00 L272.00,371.00 L272.00,370.00 L272.00,369.00 L272.00,368.00 L271.00,367.00 L270.00,366.00 L270.00,365.00 L270.00,364.00 L270.00,363.00 L270.00,362.00 L270.00,361.00 L269.00,360.00 L268.00,359.00 L268.00,358.00 L268.00,357.00 L268.00,356.00 L268.00,355.00 L267.00,354.00 L266.00,353.00 L265.00,352.00 L265.00,351.00 L265.00,350.00 L265.00,349.00 L265.00,348.00 L265.00,347.00 L264.00,346.00 L263.00,345.00 L263.00,344.00 L263.00,343.00 L263.00,342.00 L263.00,341.00 L262.00,340.00 L261.00,339.00 L260.00,338.00 L260.00,337.00 L260.00,336.00 L260.00,335.00 L260.00,334.00 L260.00,333.00 L260.00,332.00 L260.00,331.00 L260.00,330.00" fill="none" stroke="black" stroke-width="10" stroke-linecap="round" stroke-linejoin="round"/>
<path d="M177.00,42.00 L178.00,42.00" fill="none" stroke="black" stroke-width="10" stroke-linecap="round" stroke-linejoin="round"/>
<path d="M177.00,42.00 L177.00,43.00" fill="none" stroke="black" stroke-width="10" stroke-linecap="round" stroke-linejoin="round"/>
<path d="M178.00,42.00 L177.00,43.00" fill="none" stroke="black" stroke-width="10" stroke-linecap="round" stroke-linejoin="round"/>
<path d="M177.00,43.00 L176.00,44.00 L175.00,45.00 L174.00,46.00 L174.00,47.00 L174.00,48.00 L174.00,49.00 L174.00,50.00 L174.00,51.00 L173.00,52.00 L173.00,53.00 L172.00,54.00 L172.00,55.00 L172.00,56.00 L172.00,57.00 L172.00,58.00 L172.00,59.00 L172.00,60.00 L172.00,61.00 L172.00,62.00 L172.00,63.00 L172.00,64.00 L172.00,65.00 L172.00,66.00 L172.00,67.00 L171.00,68.00 L170.00,69.00 L170.00,70.00 L170.00,71.00 L170.00,72.00 L170.00,73.00 L169.00,74.00 L168.00,75.00 L168.00,76.00 L167.00,77.00 L167.00,78.00 L167.00,79.00 L167.00,80.00 L167.00,81.00 L167.00,82.00 L167.00,83.00 L167.00,84.00 L167.00,85.00 L167.00,86.00 L167.00,87.00 L167.00,88.00 L167.00,89.00 L167.00,90.00 L166.00,91.00 L165.00,92.00 L165.00,93.00 L165.00,94.00 L165.00,95.00 L165.00,96.00 L164.00,97.00 L163.00,98.00 L163.00,99.00 L162.00,100.00 L162.00,101.00 L162.00,102.00 L162.00,103.00 L162.00,104.00 L161.00,105.00 L161.00,106.00 L160.00,107.00 L160.00,108.00 L160.00,109.00 L160.00,110.00 L160.00,111.00 L159.00,112.00 L158.00,113.00 L157.00,114.00 L156.00,115.00 L155.00,116.00 L155.00,117.00 L155.00,118.00 L155.00,119.00 L155.00,120.00 L155.00,121.00 L154.00,122.00 L154.00,123.00 L153.00,124.00 L153.00,125.00 L153.00,126.00 L153.00,127.00 L153.00,128.00 L153.00,129.00 L153.00,130.00 L153.00,131.00 L153.00,132.00 L152.00,133.00 L151.00,134.00 L151.00,135.00 L151.00,136.00 L151.00,137.00 L151.00,138.00 L150.00,139.00 L149.00,140.00 L149.00,141.00 L148.00,142.00 L147.00,142.00 L146.00,143.00 L146.00,144.00 L146.00,145.00 L146.00,146.00 L146.00,147.00 L146.00,148.00 L145.00,149.00 L144.00,150.00 L144.00,151.00 L143.00,152.00 L143.00,153.00 L143.00,154.00 L143.00,155.00 L143.00,156.00 L142.00,157.00 L142.00,158.00 L141.00,159.00 L141.00,160.00 L141.00,161.00 L141.00,162.00 L141.00,163.00 L140.00,164.00 L140.00,165.00 L139.00,166.00 L139.00,167.00 L139.00,168.00 L139.00,169.00 L139.00,170.00 L138.00,171.00 L137.00,172.00 L137.00,173.00 L137.00,174.00 L137.00,175.00 L137.00,176.00 L137.00,177.00 L137.00,178.00 L137.00,179.00 L137.00,180.00 L137.00,181.00 L136.00,182.00 L135.00,183.00 L135.00,184.00 L134.00,185.00 L133.00,185.00 L132.00,186.00 L132.00,187.00 L132.00,188.00 L132.00,189.00 L132.00,190.00 L131.00,191.00 L130.00,192.00 L130.00,193.00 L129.00,194.00 L129.00,195.00 L129.00,196.00 L129.00,197.00 L129.00,198.00 L128.00,199.00 L128.00,200.00 L127.00,201.00 L127.00,202.00 L127.00,203.00 L127.00,204.00 L127.00,205.00 L126.00,206.00 L126.00,207.00 L125.00,208.00 L124.00,208.00 L123.00,209.00 L123.00,210.00 L123.00,211.00 L123.00,212.00 L123.00,213.00 L122.00,214.00 L121.00,215.00 L121.00,216.00 L120.00,217.00 L120.00,218.00 L120.00,219.00 L120.00,220.00 L120.00,221.00 L119.00,222.00 L118.00,223.00 L118.00,224.00 L118.00,225.00 L118.00,226.00 L118.00,227.00 L117.00,228.00 L116.00,229.00 L116.00,230.00 L115.00,231.00 L114.00,232.00 L113.00,233.00 L113.00,234.00 L113.00,235.00 L113.00,236.00 L113.00,237.00 L113.00,238.00 L112.00,239.00 L112.00,240.00 L111.00,241.00 L111.00,242.00 L111.00,243.00 L111.00,244.00 L111.00,245.00 L111.00,246.00 L111.00,247.00 L111.00,248.00 L111.00,249.00 L111.00,250.00 L111.00,251.00 L111.00,252.00 L111.00,253.00 L111.00,254.00 L110.00,255.00 L109.00,256.00 L109.00,257.00 L109.00,258.00 L109.00,259.00 L109.00,260.00 L108.00,261.00 L107.00,262.00 L107.00,263.00 L106.00,264.00 L105.00,264.00 L104.00,265.00 L104.00,266.00 L104.00,267.00 L104.00,268.00 L104.00,269.00 L103.00,270.00 L102.00,271.00 L102.00,272.00 L101.00,273.00 L101.00,274.00 L101.00,275.00 L101.00,276.00 L101.00,277.00 L101.00,278.00 L101.00,279.00 L101.00,280.00 L101.00,281.00 L100.00,282.00 L99.00,282.00 L98.00,282.00 L97.00,283.00 L97.00,284.00 L97.00,285.00 L97.00,286.00 L97.00,287.00 L97.00,288.00 L97.00,289.00 L97.00,290.00 L97.00,291.00 L96.00,292.00 L95.00,293.00 L95.00,294.00 L95.00,295.00 L95.00,296.00 L95.00,297.00 L95.00,298.00 L94.00,299.00 L93.00,300.00 L93.00,301.00 L92.00,302.00 L92.00,303.00 L92.00,304.00 L92.00,305.00 L92.00,306.00 L92.00,307.00 L92.00,308.00 L92.00,309.00 L92.00,310.00 L92.00,311.00 L92.00,312.00 L92.00,313.00 L92.00,314.00 L92.00,315.00 L92.00,316.00 L92.00,317.00 L92.00,318.00 L92.00,319.00 L91.00,320.00 L90.00,321.00 L89.00,322.00 L88.00,323.00 L88.00,324.00 L87.00,325.00 L87.00,326.00 L87.00,327.00 L87.00,328.00 L87.00,329.00 L87.00,330.00 L87.00,331.00 L87.00,332.00 L87.00,333.00 L86.00,334.00 L86.00,335.00 L85.00,336.00 L85.00,337.00 L85.00,338.00 L85.00,339.00 L85.00,340.00 L85.00,341.00 L84.00,342.00 L84.00,343.00 L83.00,344.00 L83.00,345.00 L83.00,346.00 L83.00,347.00 L83.00,348.00 L83.00,349.00 L83.00,350.00 L83.00,351.00 L83.00,352.00 L83.00,353.00 L83.00,354.00 L83.00,355.00 L83.00,356.00 L83.00,357.00 L83.00,358.00 L83.00,359.00 L83.00,360.00 L83.00,361.00 L82.00,362.00 L81.00,363.00 L81.00,364.00 L81.00,365.00 L81.00,366.00 L81.00,367.00 L81.00,368.00 L80.00,369.00 L79.00,370.00 L79.00,371.00 L78.00,372.00 L78.00,373.00 L78.00,374.00 L78.00,375.00 L77.00,376.00 L76.00,377.00 L76.00,378.00 L76.00,379.00 L76.00,380.00 L76.00,381.00 L76.00,382.00 L75.00,383.00 L74.00,384.00 L74.00,385.00 L73.00,386.00 L73.00,387.00 L73.00,388.00 L73.00,389.00 L73.00,390.00 L73.00,391.00 L73.00,392.00 L73.00,393.00 L73.00,394.00 L72.00,395.00 L72.00,396.00 L71.00,397.00 L70.00,398.00 L70.00,399.00 L69.00,400.00 L69.00,401.00 L69.00,402.00 L69.00,403.00 L69.00,404.00 L69.00,405.00 L69.00,406.00 L69.00,407.00 L69.00,408.00 L68.00,409.00 L67.00,410.00 L66.00,411.00 L65.00,412.00 L65.00,413.00 L64.00,414.00 L64.00,415.00 L64.00,416.00 L64.00,417.00 L64.00,418.00 L64.00,419.00 L64.00,420.00 L64.00,421.00 L64.00,422.00 L63.00,423.00 L62.00,424.00 L62.00,425.00 L62.00,426.00 L62.00,427.00 L62.00,428.00 L62.00,429.00 L61.00,430.00 L60.00,431.00 L60.00,432.00 L59.00,433.00 L59.00,434.00 L59.00,435.00 L59.00,436.00 L58.00,437.00 L58.00,438.00 L57.00,439.00 L57.00,440.00 L57.00,441.00 L57.00,442.00 L57.00,443.00 L57.00,444.00 L56.00,445.00 L56.00,446.00 L55.00,447.00 L55.00,448.00 L55.00,449.00 L55.00,450.00 L55.00,451.00 L55.00,452.00 L55.00,453.00 L55.00,454.00 L55.00,455.00 L54.00,456.00 L53.00,457.00 L53.00,458.00 L53.00,459.00 L53.00,460.00 L53.00,461.00 L52.00,462.00 L51.00,463.00 L51.00,464.00 L50.00,465.00 L49.00,465.00 L48.00,466.00 L48.00,467.00 L48.00,468.00 L48.00,469.00 L48.00,470.00 L48.00,471.00 L47.00,472.00 L46.00,473.00 L46.00,474.00 L45.00,475.00 L45.00,476.00 L45.00,477.00 L45.00,478.00 L44.00,479.00 L44.00,480.00 L43.00,481.00 L42.00,482.00 L42.00,483.00 L41.00,484.00 L41.00,485.00 L41.00,486.00 L41.00,487.00 L41.00,488.00 L41.00,489.00 L41.00,490.00 L41.00,491.00 L41.00,492.00 L41.00,493.00 L41.00,494.00" fill="none" stroke="black" stroke-width="10" stroke-linecap="round" stroke-linejoin="round"/>
<path d="M509.00,85.00 L510.00,85.00 L511.00,85.00 L512.00,85.00 L513.00,85.00 L514.00,85.00 L515.00,85.00 L516.00,85.00 L517.00,85.00 L518.00,85.00 L519.00,85.00 L520.00,85.00 L521.00,85.00 L522.00,85.00 L523.00,85.00 L524.00,85.00 L525.00,85.00 L526.00,85.00 L527.00,85.00 L528.00,85.00 L529.00,85.00 L530.00,85.00 L531.00,85.00 L532.00,85.00 L533.00,85.00 L534.00,85.00 L535.00,85.00 L536.00,85.00 L537.00,85.00 L538.00,85.00 L539.00,85.00 L540.00,85.00 L541.00,85.00 L542.00,86.00 L543.00,87.00 L544.00,88.00 L545.00,88.00 L546.00,88.00 L547.00,88.00 L548.00,88.00 L549.00,88.00 L550.00,89.00 L551.00,90.00 L552.00,90.00 L553.00,90.00 L554.00,90.00 L555.00,90.00 L556.00,90.00 L557.00,90.00 L558.00,90.00 L559.00,90.00 L560.00,90.00 L561.00,90.00 L562.00,90.00 L563.00,90.00 L564.00,90.00 L565.00,90.00 L566.00,90.00 L567.00,90.00 L568.00,90.00 L569.00,90.00 L570.00,90.00 L571.00,90.00 L572.00,90.00 L573.00,90.00 L574.00,90.00 L575.00,90.00 L576.00,90.00 L577.00,90.00 L578.00,90.00 L579.00,90.00 L580.00,91.00 L581.00,92.00 L582.00,93.00 L583.00,93.00 L584.00,93.00 L585.00,93.00 L586.00,93.00 L587.00,94.00 L588.00,95.00 L589.00,95.00 L590.00,95.00 L591.00,95.00 L592.00,95.00 L593.00,95.00 L594.00,95.00 L595.00,95.00 L596.00,95.00 L597.00,95.00 L598.00,95.00 L599.00,95.00 L600.00,95.00 L601.00,95.00 L602.00,95.00 L603.00,96.00 L604.00,97.00 L605.00,97.00 L606.00,97.00 L607.00,97.00 L608.00,97.00 L609.00,97.00 L610.00,98.00 L611.00,99.00 L612.00,99.00 L613.00,99.00 L614.00,99.00 L615.00,99.00 L616.00,99.00 L617.00,99.00 L618.00,99.00 L619.00,99.00 L620.00,99.00 L621.00,99.00 L622.00,99.00 L623.00,99.00 L624.00,99.00 L625.00,99.00 L626.00,100.00 L627.00,101.00 L628.00,102.00 L629.00,102.00 L630.00,102.00 L631.00,102.00 L632.00,102.00 L633.00,102.00 L634.00,103.00 L635.00,104.00 L636.00,104.00 L637.00,104.00 L638.00,104.00 L639.00,104.00 L640.00,105.00 L641.00,106.00 L642.00,107.00 L643.00,107.00 L644.00,107.00 L645.00,107.00 L646.00,107.00 L647.00,107.00 L648.00,108.00 L649.00,109.00 L650.00,109.00 L651.00,109.00 L652.00,109.00 L653.00,109.00 L654.00,109.00 L655.00,109.00 L656.00,109.00 L657.00,109.00 L658.00,109.00 L659.00,109.00 L660.00,109.00 L661.00,109.00 L662.00,109.00 L663.00,109.00 L664.00,109.00 L665.00,109.00 L666.00,109.00 L667.00,109.00 L668.00,109.00 L669.00,110.00 L670.00,111.00 L671.00,111.00 L672.00,111.00 L673.00,111.00 L674.00,111.00 L675.00,111.00 L676.00,112.00 L677.00,113.00 L678.00,114.00 L679.00,115.00 L680.00,116.00 L681.00,116.00 L682.00,116.00 L683.00,116.00 L684.00,116.00 L685.00,117.00 L686.00,118.00 L687.00,118.00 L688.00,118.00 L689.00,118.00 L690.00,118.00 L691.00,118.00 L692.00,118.00 L693.00,118.00 L694.00,118.00 L695.00,118.00 L696.00,118.00 L697.00,119.00 L698.00,120.00 L699.00,121.00 L700.00,121.00 L701.00,121.00 L702.00,121.00 L703.00,121.00 L704.00,122.00 L705.00,123.00 L706.00,123.00 L707.00,123.00 L708.00,123.00 L709.00,123.00 L710.00,123.00 L711.00,124.00 L712.00,125.00 L713.00,125.00 L714.00,125.00 L715.00,125.00 L716.00,125.00 L717.00,125.00 L718.00,126.00 L719.00,127.00 L720.00,127.00 L721.00,127.00 L722.00,127.00 L723.00,127.00 L724.00,127.00 L725.00,128.00 L726.00,129.00 L727.00,130.00 L728.00,130.00 L729.00,130.00 L730.00,130.00 L731.00,130.00 L732.00,131.00 L733.00,132.00 L734.00,133.00 L735.00,134.00 L736.00,135.00 L737.00,135.00 L738.00,135.00 L739.00,135.00 L740.00,136.00 L740.00,137.00 L740.00,138.00 L741.00,139.00 L742.00,139.00 L743.00,139.00 L744.00,139.00 L745.00,139.00 L746.00,140.00 L747.00,141.00 L748.00,142.00 L749.00,143.00 L750.00,144.00 L751.00,144.00 L752.00,144.00 L753.00,144.00 L754.00,145.00 L754.00,146.00 L754.00,147.00 L754.00,148.00 L755.00,149.00 L756.00,149.00 L757.00,149.00 L758.00,149.00 L759.00,150.00 L759.00,151.00 L759.00,152.00 L760.00,153.00 L761.00,153.00 L762.00,153.00 L763.00,153.00 L764.00,154.00 L764.00,155.00 L764.00,156.00 L764.00,157.00 L765.00,158.00 L766.00,158.00 L767.00,158.00 L768.00,159.00 L768.00,160.00 L768.00,161.00 L768.00,162.00 L769.00,163.00 L770.00,163.00 L771.00,163.00 L772.00,163.00 L773.00,163.00 L774.00,164.00 L775.00,165.00 L775.00,166.00 L775.00,167.00" fill="none" stroke="black" stroke-width="10" stroke-linecap="round" stroke-linejoin="round"/>
<path d="M509.00,85.00 L508.00,86.00 L507.00,87.00 L506.00,88.00 L505.00,89.00 L504.00,90.00 L503.00,90.00 L502.00,90.00 L501.00,90.00 L500.00,90.00 L499.00,90.00 L498.00,90.00 L497.00,90.00 L496.00,90.00 L495.00,90.00 L494.00,90.00 L493.00,90.00 L492.00,90.00 L491.00,90.00 L490.00,91.00 L489.00,91.00 L488.00,92.00 L487.00,93.00 L486.00,94.00 L486.00,95.00 L485.00,96.00 L484.00,96.00 L483.00,97.00 L482.00,97.00 L481.00,97.00 L480.00,97.00 L479.00,97.00 L478.00,98.00 L477.00,99.00 L476.00,100.00 L475.00,100.00 L474.00,101.00 L473.00,102.00 L472.00,102.00 L471.00,102.00 L470.00,102.00 L469.00,102.00 L468.00,103.00 L467.00,104.00 L466.00,105.00 L465.00,106.00 L464.00,107.00 L463.00,108.00 L463.00,109.00 L462.00,110.00 L461.00,110.00 L460.00,111.00 L459.00,112.00 L458.00,113.00 L457.00,113.00 L456.00,113.00 L455.00,113.00 L454.00,113.00 L453.00,113.00 L452.00,114.00 L451.00,115.00 L450.00,116.00 L449.00,117.00 L449.00,118.00 L448.00,119.00 L447.00,119.00 L446.00,120.00 L445.00,121.00 L444.00,121.00 L443.00,121.00 L442.00,121.00 L441.00,121.00 L440.00,122.00 L439.00,123.00 L438.00,124.00 L437.00,125.00 L436.00,126.00 L435.00,127.00 L434.00,128.00 L433.00,128.00 L432.00,129.00 L431.00,130.00 L430.00,131.00 L430.00,132.00 L429.00,133.00 L428.00,133.00 L427.00,134.00 L426.00,135.00 L425.00,136.00 L425.00,137.00 L424.00,138.00 L423.00,139.00 L422.00,140.00 L421.00,141.00 L420.00,141.00 L419.00,142.00 L418.00,143.00 L417.00,144.00 L416.00,145.00 L416.00,146.00 L415.00,147.00 L414.00,147.00 L413.00,148.00 L412.00,149.00 L411.00,149.00 L410.00,149.00 L409.00,149.00 L408.00,150.00 L408.00,151.00 L408.00,152.00 L407.00,153.00 L406.00,154.00 L406.00,155.00 L405.00,156.00 L404.00,157.00 L404.00,158.00 L403.00,159.00 L402.00,160.00 L401.00,161.00 L400.00,161.00 L399.00,162.00 L398.00,163.00 L397.00,164.00 L397.00,165.00 L396.00,166.00 L395.00,166.00 L394.00,167.00 L394.00,168.00 L394.00,169.00 L394.00,170.00 L394.00,171.00 L393.00,172.00 L392.00,173.00 L392.00,174.00 L391.00,175.00 L390.00,176.00 L389.00,177.00 L388.00,178.00 L388.00,179.00 L387.00,180.00 L386.00,180.00 L385.00,181.00 L385.00,182.00 L385.00,183.00 L385.00,184.00 L385.00,185.00 L384.00,186.00 L383.00,187.00 L383.00,188.00 L382.00,189.00 L382.00,190.00 L382.00,191.00 L382.00,192.00 L382.00,193.00 L381.00,194.00 L380.00,195.00 L379.00,196.00 L378.00,197.00 L378.00,198.00 L377.00,199.00 L377.00,200.00 L377.00,201.00 L377.00,202.00 L377.00,203.00 L377.00,204.00 L377.00,205.00 L377.00,206.00 L377.00,207.00 L377.00,208.00 L377.00,209.00 L377.00,210.00 L377.00,211.00 L377.00,212.00 L377.00,213.00 L377.00,214.00 L377.00,215.00 L377.00,216.00 L377.00,217.00 L377.00,218.00 L377.00,219.00 L377.00,220.00 L377.00,221.00 L377.00,222.00 L377.00,223.00 L377.00,224.00 L377.00,225.00 L377.00,226.00 L377.00,227.00 L377.00,228.00 L377.00,229.00 L377.00,230.00 L377.00,231.00 L377.00,232.00 L377.00,233.00 L377.00,234.00 L377.00,235.00 L377.00,236.00 L377.00,237.00 L377.00,238.00 L377.00,239.00 L377.00,240.00 L377.00,241.00 L377.00,242.00 L377.00,243.00 L377.00,244.00 L377.00,245.00 L377.00,246.00 L377.00,247.00 L377.00,248.00 L377.00,249.00 L377.00,250.00 L377.00,251.00 L377.00,252.00 L377.00,253.00 L377.00,254.00 L377.00,255.00 L377.00,256.00 L377.00,257.00 L377.00,258.00 L377.00,259.00 L377.00,260.00 L377.00,261.00 L377.00,262.00 L377.00,263.00 L377.00,264.00 L377.00,265.00 L377.00,266.00 L377.00,267.00 L377.00,268.00 L376.00,269.00 L376.00,270.00 L375.00,271.00 L374.00,272.00 L373.00,273.00 L373.00,274.00 L373.00,275.00 L373.00,276.00 L373.00,277.00 L373.00,278.00 L373.00,279.00 L373.00,280.00 L373.00,281.00 L373.00,282.00 L373.00,283.00 L373.00,284.00 L373.00,285.00 L373.00,286.00 L373.00,287.00 L373.00,288.00 L373.00,289.00 L373.00,290.00 L373.00,291.00 L373.00,292.00 L373.00,293.00 L373.00,294.00 L373.00,295.00 L373.00,296.00 L373.00,297.00 L373.00,298.00 L373.00,299.00 L373.00,300.00 L373.00,301.00 L373.00,302.00 L373.00,303.00 L373.00,304.00 L373.00,305.00 L373.00,306.00 L373.00,307.00 L373.00,308.00 L373.00,309.00 L373.00,310.00 L373.00,311.00 L373.00,312.00 L373.00,313.00 L373.00,314.00 L373.00,315.00 L373.00,316.00 L373.00,317.00 L373.00,318.00 L373.00,319.00 L373.00,320.00 L373.00,321.00 L373.00,322.00 L373.00,323.00 L373.00,324.00 L373.00,325.00 L373.00,326.00 L373.00,327.00 L373.00,328.00 L373.00,329.00 L373.00,330.00 L373.00,331.00 L373.00,332.00 L373.00,333.00 L373.00,334.00 L373.00,335.00 L373.00,336.00 L373.00,337.00 L373.00,338.00 L373.00,339.00 L373.00,340.00 L373.00,341.00 L373.00,342.00 L373.00,343.00 L373.00,344.00 L373.00,345.00 L373.00,346.00 L373.00,347.00 L373.00,348.00 L373.00,349.00 L373.00,350.00 L373.00,351.00 L373.00,352.00 L374.00,353.00 L375.00,354.00 L375.00,355.00 L375.00,356.00 L375.00,357.00 L375.00,358.00 L375.00,359.00 L376.00,360.00 L377.00,361.00 L377.00,362.00 L377.00,363.00 L377.00,364.00 L377.00,365.00 L377.00,366.00 L377.00,367.00 L377.00,368.00 L377.00,369.00 L377.00,370.00 L377.00,371.00 L378.00,372.00 L379.00,373.00 L380.00,374.00 L380.00,375.00 L380.00,376.00 L380.00,377.00 L380.00,378.00 L381.00,379.00 L382.00,380.00 L383.00,381.00 L384.00,382.00 L385.00,383.00 L386.00,384.00 L387.00,385.00 L388.00,386.00 L389.00,387.00 L390.00,387.00 L391.00,387.00 L392.00,387.00 L393.00,387.00 L394.00,388.00 L394.00,389.00 L394.00,390.00 L394.00,391.00 L394.00,392.00 L395.00,393.00 L396.00,394.00 L397.00,395.00 L398.00,396.00 L399.00,397.00 L399.00,398.00 L399.00,399.00 L399.00,400.00 L399.00,401.00 L399.00,402.00 L400.00,403.00 L401.00,404.00 L402.00,405.00 L403.00,406.00 L403.00,407.00 L403.00,408.00 L403.00,409.00 L403.00,410.00 L404.00,411.00 L405.00,411.00 L406.00,411.00 L407.00,411.00 L408.00,412.00 L408.00,413.00 L408.00,414.00 L408.00,415.00 L409.00,416.00 L410.00,416.00 L411.00,416.00 L412.00,416.00 L413.00,417.00 L413.00,418.00 L413.00,419.00 L414.00,420.00 L415.00,420.00 L416.00,420.00 L417.00,421.00 L417.00,422.00 L417.00,423.00 L417.00,424.00 L418.00,425.00 L419.00,425.00 L420.00,425.00 L421.00,425.00 L422.00,426.00 L422.00,427.00 L422.00,428.00 L422.00,429.00 L423.00,430.00 L424.00,430.00 L425.00,430.00 L426.00,430.00 L427.00,431.00 L427.00,432.00 L427.00,433.00 L428.00,434.00 L429.00,434.00 L430.00,434.00 L431.00,434.00 L432.00,434.00 L433.00,435.00 L434.00,436.00 L435.00,437.00 L436.00,438.00 L436.00,439.00 L437.00,440.00 L438.00,441.00 L439.00,442.00 L440.00,443.00 L441.00,444.00 L442.00,445.00 L443.00,446.00 L444.00,447.00 L445.00,448.00 L446.00,448.00 L447.00,448.00 L448.00,448.00 L449.00,448.00 L450.00,448.00 L451.00,449.00 L452.00,450.00 L453.00,451.00 L454.00,452.00 L455.00,453.00 L456.00,453.00 L457.00,453.00 L458.00,453.00 L459.00,453.00 L460.00,453.00 L461.00,454.00 L462.00,455.00 L463.00,456.00 L464.00,457.00 L465.00,458.00 L466.00,458.00 L467.00,458.00 L468.00,458.00 L469.00,458.00 L470.00,459.00 L471.00,460.00 L472.00,460.00 L473.00,460.00 L474.00,460.00 L475.00,460.00 L476.00,460.00 L477.00,460.00 L478.00,460.00 L479.00,460.00 L480.00,460.00 L481.00,461.00 L482.00,462.00 L483.00,462.00 L484.00,462.00 L485.00,462.00 L486.00,462.00 L487.00,462.00 L488.00,462.00 L489.00,463.00 L490.00,464.00 L491.00,464.00 L492.00,464.00 L493.00,464.00 L494.00,464.00 L495.00,464.00 L496.00,464.00 L497.00,464.00 L498.00,464.00 L499.00,464.00 L500.00,465.00 L501.00,466.00 L502.00,467.00 L503.00,467.00 L504.00,467.00 L505.00,467.00 L506.00,467.00 L507.00,468.00 L508.00,469.00 L509.00,469.00 L510.00,469.00 L511.00,469.00 L512.00,469.00 L513.00,469.00 L514.00,469.00 L515.00,469.00 L516.00,469.00 L517.00,469.00 L518.00,469.00 L519.00,469.00 L520.00,469.00 L521.00,469.00 L522.00,469.00 L523.00,469.00 L524.00,469.00 L525.00,469.00 L526.00,469.00 L527.00,469.00 L528.00,469.00 L529.00,469.00 L530.00,469.00 L531.00,469.00 L532.00,469.00 L533.00,469.00 L534.00,469.00 L535.00,469.00 L536.00,469.00 L537.00,469.00 L538.00,470.00 L539.00,471.00 L540.00,472.00 L541.00,472.00 L542.00,472.00 L543.00,472.00 L544.00,472.00 L545.00,473.00 L546.00,474.00 L547.00,474.00 L548.00,474.00 L549.00,474.00 L550.00,474.00 L551.00,474.00 L552.00,474.00 L553.00,474.00 L554.00,474.00 L555.00,474.00 L556.00,474.00 L557.00,474.00 L558.00,474.00 L559.00,474.00 L560.00,474.00 L561.00,474.00 L562.00,474.00 L563.00,474.00 L564.00,474.00 L565.00,474.00 L566.00,475.00 L567.00,476.00 L568.00,476.00 L569.00,476.00 L570.00,476.00 L571.00,476.00 L572.00,476.00 L573.00,477.00 L574.00,478.00 L575.00,478.00 L576.00,478.00 L577.00,478.00 L578.00,478.00 L579.00,478.00 L580.00,478.00 L581.00,478.00 L582.00,478.00 L583.00,478.00 L584.00,478.00 L585.00,478.00 L586.00,478.00 L587.00,478.00 L588.00,478.00 L589.00,478.00 L590.00,478.00 L591.00,478.00 L592.00,478.00 L593.00,478.00 L594.00,478.00 L595.00,478.00 L596.00,478.00 L597.00,478.00 L598.00,478.00 L599.00,478.00 L600.00,478.00 L601.00,478.00 L602.00,478.00 L603.00,478.00 L604.00,478.00 L605.00,478.00 L606.00,478.00 L607.00,478.00 L608.00,479.00 L609.00,480.00 L610.00,481.00 L611.00,481.00 L612.00,481.00 L613.00,481.00 L614.00,481.00 L615.00,482.00 L616.00,483.00 L617.00,483.00 L618.00,483.00 L619.00,483.00 L620.00,483.00 L621.00,483.00 L622.00,483.00 L623.00,483.00 L624.00,483.00 L625.00,483.00 L626.00,483.00 L627.00,483.00 L628.00,483.00 L629.00,483.00 L630.00,483.00 L631.00,483.00 L632.00,483.00 L633.00,483.00 L634.00,483.00 L635.00,483.00 L636.00,483.00 L637.00,483.00 L638.00,483.00 L639.00,483.00 L640.00,483.00 L641.00,483.00 L642.00,483.00 L643.00,483.00 L644.00,483.00 L645.00,483.00 L646.00,483.00 L647.00,483.00 L648.00,483.00 L649.00,483.00 L650.00,483.00 L651.00,483.00 L652.00,483.00 L653.00,483.00 L654.00,483.00 L655.00,483.00 L656.00,483.00 L657.00,483.00 L658.00,483.00 L659.00,483.00 L660.00,483.00 L661.00,483.00 L662.00,483.00 L663.00,483.00 L664.00,483.00 L665.00,483.00 L666.00,483.00 L667.00,483.00 L668.00,483.00 L669.00,483.00 L670.00,483.00 L671.00,483.00 L672.00,483.00 L673.00,483.00 L674.00,483.00 L675.00,483.00 L676.00,483.00 L677.00,483.00 L678.00,483.00 L679.00,483.00 L680.00,483.00 L681.00,483.00 L682.00,483.00 L683.00,483.00 L684.00,483.00 L685.00,483.00 L686.00,483.00 L687.00,483.00 L688.00,483.00 L689.00,483.00 L690.00,483.00 L691.00,483.00 L692.00,483.00 L693.00,483.00 L694.00,483.00 L695.00,483.00 L696.00,483.00 L697.00,483.00 L698.00,483.00 L699.00,483.00 L700.00,483.00 L701.00,483.00 L702.00,483.00 L703.00,483.00 L704.00,483.00 L705.00,483.00 L706.00,483.00 L707.00,483.00 L708.00,483.00 L709.00,483.00 L710.00,483.00 L711.00,483.00 L712.00,483.00 L713.00,483.00 L714.00,483.00 L715.00,483.00 L716.00,483.00 L717.00,483.00 L718.00,483.00 L719.00,483.00 L720.00,482.00 L721.00,481.00 L722.00,480.00 L723.00,479.00 L724.00,479.00 L725.00,478.00 L726.00,478.00 L727.00,478.00 L728.00,478.00 L729.00,478.00 L730.00,478.00 L731.00,478.00 L732.00,478.00 L733.00,478.00 L734.00,478.00 L735.00,478.00 L736.00,478.00 L737.00,478.00 L738.00,477.00 L738.00,476.00 L738.00,475.00 L738.00,474.00 L738.00,473.00 L738.00,472.00 L738.00,471.00 L738.00,470.00 L738.00,469.00 L738.00,468.00 L738.00,467.00 L738.00,466.00 L738.00,465.00 L738.00,464.00 L738.00,463.00 L738.00,462.00 L738.00,461.00 L738.00,460.00 L738.00,459.00 L738.00,458.00 L738.00,457.00 L738.00,456.00 L738.00,455.00 L737.00,454.00 L736.00,453.00 L735.00,452.00 L734.00,451.00 L733.00,450.00 L732.00,449.00 L731.00,448.00 L730.00,448.00 L729.00,448.00 L728.00,448.00 L727.00,448.00 L726.00,448.00 L725.00,447.00 L724.00,446.00 L723.00,446.00 L722.00,446.00 L721.00,446.00 L720.00,446.00 L719.00,446.00 L718.00,446.00 L717.00,446.00 L716.00,446.00 L715.00,446.00 L714.00,446.00 L713.00,446.00 L712.00,446.00 L711.00,446.00 L710.00,446.00 L709.00,446.00 L708.00,446.00 L707.00,446.00 L706.00,446.00 L705.00,446.00 L704.00,445.00 L703.00,444.00 L702.00,444.00 L701.00,444.00 L700.00,444.00 L699.00,444.00 L698.00,443.00 L697.00,442.00 L696.00,441.00 L695.00,441.00 L694.00,441.00 L693.00,441.00 L692.00,441.00 L691.00,441.00 L690.00,441.00 L689.00,441.00 L688.00,441.00 L687.00,441.00 L686.00,441.00 L685.00,441.00 L684.00,441.00 L683.00,441.00 L682.00,441.00 L681.00,441.00 L680.00,441.00 L679.00,441.00 L678.00,441.00 L677.00,441.00 L676.00,440.00 L675.00,439.00 L674.00,439.00 L673.00,439.00 L672.00,439.00 L671.00,439.00 L670.00,438.00 L669.00,437.00 L668.00,436.00 L667.00,436.00 L666.00,436.00 L665.00,436.00 L664.00,436.00 L663.00,436.00 L662.00,436.00 L661.00,436.00 L660.00,436.00 L659.00,436.00 L658.00,436.00 L657.00,436.00 L656.00,436.00 L655.00,436.00 L654.00,436.00 L653.00,436.00 L652.00,436.00 L651.00,436.00 L650.00,436.00 L649.00,436.00 L648.00,436.00 L647.00,436.00 L646.00,436.00 L645.00,436.00 L644.00,436.00 L643.00,435.00 L642.00,434.00 L641.00,434.00 L640.00,434.00 L639.00,434.00 L638.00,434.00 L637.00,434.00 L636.00,433.00 L635.00,432.00 L634.00,432.00 L633.00,432.00 L632.00,432.00 L631.00,432.00 L630.00,432.00 L629.00,432.00 L628.00,432.00 L627.00,432.00 L626.00,432.00 L625.00,432.00 L624.00,432.00 L623.00,432.00 L622.00,432.00 L621.00,432.00 L620.00,432.00 L619.00,432.00 L618.00,432.00 L617.00,432.00 L616.00,432.00 L615.00,431.00 L614.00,430.00 L613.00,430.00 L612.00,430.00 L611.00,430.00 L610.00,430.00 L609.00,429.00 L608.00,428.00 L607.00,427.00 L606.00,427.00 L605.00,427.00 L604.00,427.00 L603.00,427.00 L602.00,427.00 L601.00,427.00 L600.00,427.00 L599.00,427.00 L598.00,427.00 L597.00,427.00 L596.00,427.00 L595.00,427.00 L594.00,427.00 L593.00,427.00 L592.00,427.00 L591.00,427.00 L590.00,427.00 L589.00,427.00 L588.00,427.00 L587.00,427.00 L586.00,427.00 L585.00,427.00 L584.00,427.00 L583.00,427.00 L582.00,427.00 L581.00,427.00 L580.00,427.00 L579.00,427.00 L578.00,426.00 L577.00,425.00 L576.00,425.00 L575.00,425.00 L574.00,425.00 L573.00,425.00 L572.00,425.00 L571.00,424.00 L570.00,423.00 L569.00,422.00 L568.00,422.00 L567.00,422.00 L566.00,422.00 L565.00,422.00 L564.00,422.00 L563.00,422.00 L562.00,422.00 L561.00,422.00 L560.00,422.00 L559.00,422.00 L558.00,422.00 L557.00,422.00 L556.00,422.00 L555.00,422.00 L554.00,422.00 L553.00,422.00 L552.00,422.00 L551.00,422.00 L550.00,422.00 L549.00,422.00 L548.00,422.00 L547.00,422.00 L546.00,422.00 L545.00,422.00 L544.00,422.00 L543.00,422.00 L542.00,422.00 L541.00,422.00 L540.00,422.00 L539.00,422.00 L538.00,422.00 L537.00,422.00 L536.00,422.00 L535.00,422.00 L534.00,422.00 L533.00,422.00 L532.00,422.00 L531.00,421.00 L530.00,420.00 L529.00,420.00 L528.00,420.00 L527.00,420.00 L526.00,420.00 L525.00,420.00 L524.00,420.00 L523.00,419.00 L522.00,418.00 L521.00,418.00 L520.00,418.00 L519.00,418.00 L518.00,418.00 L517.00,418.00 L516.00,418.00 L515.00,418.00 L514.00,418.00 L513.00,418.00 L512.00,417.00 L511.00,416.00 L510.00,416.00 L509.00,416.00 L508.00,416.00 L507.00,416.00 L506.00,415.00 L505.00,414.00 L504.00,413.00 L503.00,413.00 L502.00,413.00 L501.00,413.00 L500.00,413.00 L499.00,413.00 L498.00,412.00 L497.00,411.00 L496.00,411.00 L495.00,411.00 L494.00,411.00 L493.00,411.00 L492.00,410.00 L492.00,409.00 L492.00,408.00 L492.00,407.00 L491.00,406.00 L490.00,406.00 L489.00,406.00 L488.00,406.00 L487.00,406.00 L486.00,405.00 L485.00,404.00 L484.00,404.00 L483.00,404.00 L482.00,404.00 L481.00,404.00 L480.00,404.00 L479.00,403.00 L478.00,402.00 L478.00,401.00 L477.00,400.00 L476.00,399.00 L475.00,398.00 L474.00,397.00 L473.00,397.00 L472.00,397.00 L471.00,397.00 L470.00,397.00 L469.00,397.00 L468.00,396.00 L467.00,395.00 L466.00,394.00 L465.00,393.00 L464.00,392.00 L463.00,391.00 L462.00,390.00 L462.00,389.00 L461.00,388.00 L460.00,387.00 L459.00,387.00 L458.00,386.00 L457.00,385.00 L456.00,384.00 L455.00,383.00 L454.00,383.00 L453.00,383.00 L452.00,383.00 L451.00,383.00 L450.00,382.00 L450.00,381.00 L450.00,380.00 L450.00,379.00 L449.00,378.00 L448.00,378.00 L447.00,378.00 L446.00,377.00 L446.00,376.00 L446.00,375.00 L446.00,374.00 L445.00,373.00 L444.00,373.00 L443.00,373.00 L442.00,373.00 L441.00,372.00 L441.00,371.00 L441.00,370.00 L440.00,369.00 L439.00,369.00 L438.00,369.00 L437.00,369.00 L436.00,368.00 L436.00,367.00 L436.00,366.00 L436.00,365.00 L435.00,364.00 L434.00,364.00 L433.00,364.00 L432.00,363.00 L432.00,362.00 L432.00,361.00 L432.00,360.00 L431.00,359.00 L430.00,358.00 L429.00,357.00 L428.00,356.00 L427.00,355.00 L427.00,354.00 L427.00,353.00 L427.00,352.00 L427.00,351.00 L427.00,350.00 L426.00,349.00 L425.00,348.00 L424.00,347.00 L423.00,346.00 L422.00,345.00 L422.00,344.00 L422.00,343.00 L422.00,342.00 L422.00,341.00 L422.00,340.00 L421.00,339.00 L420.00,338.00 L420.00,337.00 L420.00,336.00 L420.00,335.00 L420.00,334.00 L420.00,333.00 L420.00,332.00 L420.00,331.00 L420.00,330.00 L420.00,329.00 L420.00,328.00 L420.00,327.00 L420.00,326.00 L420.00,325.00 L420.00,324.00 L420.00,323.00 L420.00,322.00 L420.00,321.00 L420.00,320.00 L420.00,319.00 L420.00,318.00 L420.00,317.00 L420.00,316.00 L420.00,315.00 L420.00,314.00 L420.00,313.00 L420.00,312.00 L420.00,311.00 L420.00,310.00 L420.00,309.00 L420.00,308.00 L420.00,307.00 L420.00,306.00 L420.00,305.00 L420.00,304.00 L420.00,303.00 L420.00,302.00 L420.00,301.00 L420.00,300.00 L420.00,299.00 L420.00,298.00 L420.00,297.00 L420.00,296.00 L420.00,295.00 L420.00,294.00 L420.00,293.00 L420.00,292.00 L420.00,291.00 L420.00,290.00 L420.00,289.00 L420.00,288.00 L420.00,287.00 L420.00,286.00 L420.00,285.00 L420.00,284.00 L420.00,283.00 L420.00,282.00 L420.00,281.00 L420.00,280.00 L420.00,279.00 L420.00,278.00 L421.00,277.00 L422.00,276.00 L423.00,275.00 L423.00,274.00 L424.00,273.00 L424.00,272.00 L424.00,271.00 L424.00,270.00 L424.00,269.00 L424.00,268.00 L424.00,267.00 L424.00,266.00 L424.00,265.00 L424.00,264.00 L424.00,263.00 L424.00,262.00 L424.00,261.00 L424.00,260.00 L424.00,259.00 L425.00,258.00 L425.00,257.00 L426.00,256.00 L427.00,255.00 L427.00,254.00 L427.00,253.00 L427.00,252.00 L427.00,251.00 L428.00,250.00 L429.00,249.00 L429.00,248.00 L429.00,247.00 L429.00,246.00 L429.00,245.00 L429.00,244.00 L429.00,243.00 L429.00,242.00 L429.00,241.00 L430.00,240.00 L430.00,239.00 L431.00,238.00 L432.00,237.00 L433.00,236.00 L434.00,235.00 L434.00,234.00 L434.00,233.00 L434.00,232.00 L434.00,231.00 L434.00,230.00 L434.00,229.00 L434.00,228.00 L434.00,227.00 L435.00,226.00 L435.00,225.00 L436.00,224.00 L436.00,223.00 L436.00,222.00 L436.00,221.00 L436.00,220.00 L436.00,219.00 L437.00,218.00 L438.00,217.00 L439.00,216.00 L440.00,215.00 L441.00,214.00 L442.00,213.00 L443.00,212.00 L443.00,211.00 L443.00,210.00 L443.00,209.00 L443.00,208.00 L444.00,207.00 L444.00,206.00 L445.00,205.00 L446.00,204.00 L447.00,203.00 L448.00,203.00 L449.00,202.00 L449.00,201.00 L450.00,200.00 L450.00,199.00 L450.00,198.00 L450.00,197.00 L450.00,196.00 L451.00,195.00 L452.00,194.00 L453.00,193.00 L453.00,192.00 L454.00,191.00 L455.00,190.00 L456.00,189.00 L457.00,189.00 L458.00,188.00 L459.00,187.00 L460.00,186.00 L461.00,185.00 L462.00,184.00 L462.00,183.00 L462.00,182.00 L462.00,181.00 L462.00,180.00 L463.00,179.00 L463.00,178.00 L464.00,177.00 L465.00,176.00 L466.00,175.00 L467.00,174.00 L468.00,173.00 L469.00,172.00 L470.00,171.00 L471.00,171.00 L472.00,170.00 L473.00,170.00 L474.00,170.00 L475.00,170.00 L476.00,169.00 L476.00,168.00 L476.00,167.00 L476.00,166.00 L477.00,165.00 L477.00,164.00 L478.00,163.00 L479.00,162.00 L480.00,161.00 L481.00,160.00 L482.00,160.00 L483.00,160.00 L484.00,160.00 L485.00,160.00 L486.00,160.00 L487.00,159.00 L488.00,158.00 L489.00,157.00 L490.00,156.00 L491.00,156.00 L492.00,156.00 L493.00,156.00 L494.00,155.00 L495.00,155.00 L496.00,154.00 L497.00,153.00 L498.00,152.00 L499.00,152.00 L500.00,151.00 L500.00,150.00 L501.00,149.00 L502.00,148.00 L503.00,147.00 L504.00,147.00 L505.00,146.00 L506.00,146.00 L507.00,146.00 L508.00,146.00 L509.00,146.00 L510.00,145.00 L511.00,144.00 L512.00,144.00 L513.00,144.00 L514.00,144.00 L515.00,144.00 L516.00,143.00 L517.00,142.00 L518.00,142.00 L519.00,141.00 L520.00,141.00 L521.00,141.00 L522.00,141.00 L523.00,141.00 L524.00,140.00 L525.00,139.00 L526.00,138.00 L527.00,138.00 L528.00,137.00 L529.00,137.00 L530.00,137.00 L531.00,137.00 L532.00,137.00 L533.00,137.00 L534.00,137.00 L535.00,137.00 L536.00,137.00 L537.00,137.00 L538.00,137.00 L539.00,137.00 L540.00,137.00 L541.00,137.00 L542.00,137.00 L543.00,137.00 L544.00,137.00 L545.00,137.00 L546.00,137.00 L547.00,137.00 L548.00,137.00 L549.00,137.00 L550.00,137.00 L551.00,137.00 L552.00,137.00 L553.00,137.00 L554.00,137.00 L555.00,137.00 L556.00,138.00 L557.00,139.00 L558.00,139.00 L559.00,139.00 L560.00,139.00 L561.00,139.00 L562.00,139.00 L563.00,139.00 L564.00,140.00 L565.00,141.00 L566.00,141.00 L567.00,141.00 L568.00,141.00 L569.00,141.00 L570.00,141.00 L571.00,141.00 L572.00,141.00 L573.00,141.00 L574.00,141.00 L575.00,142.00 L576.00,143.00 L577.00,144.00 L578.00,144.00 L579.00,144.00 L580.00,144.00 L581.00,144.00 L582.00,145.00 L583.00,146.00 L584.00,146.00 L585.00,146.00 L586.00,146.00 L587.00,146.00 L588.00,146.00 L589.00,146.00 L590.00,146.00 L591.00,146.00 L592.00,146.00 L593.00,146.00 L594.00,147.00 L595.00,148.00 L596.00,149.00 L597.00,149.00 L598.00,149.00 L599.00,149.00 L600.00,149.00 L601.00,150.00 L602.00,151.00 L603.00,151.00 L604.00,151.00 L605.00,151.00 L606.00,151.00 L607.00,151.00 L608.00,151.00 L609.00,151.00 L610.00,151.00 L611.00,151.00 L612.00,152.00 L613.00,153.00 L614.00,153.00 L615.00,153.00 L616.00,153.00 L617.00,153.00 L618.00,153.00 L619.00,153.00 L620.00,154.00 L621.00,155.00 L622.00,156.00 L623.00,156.00 L624.00,156.00 L625.00,156.00 L626.00,156.00 L627.00,156.00 L628.00,156.00 L629.00,156.00 L630.00,156.00 L631.00,157.00 L632.00,158.00 L633.00,158.00 L634.00,158.00 L635.00,158.00 L636.00,158.00 L637.00,158.00 L638.00,159.00 L639.00,160.00 L640.00,160.00 L641.00,160.00 L642.00,160.00 L643.00,160.00 L644.00,160.00 L645.00,160.00 L646.00,160.00 L647.00,160.00 L648.00,160.00 L649.00,160.00 L650.00,160.00 L651.00,160.00 L652.00,160.00 L653.00,160.00 L654.00,161.00 L655.00,162.00 L656.00,163.00 L657.00,163.00 L658.00,163.00 L659.00,163.00 L660.00,163.00 L661.00,163.00 L662.00,164.00 L663.00,165.00 L664.00,166.00 L665.00,167.00 L666.00,168.00 L667.00,168.00 L668.00,168.00 L669.00,168.00 L670.00,168.00 L671.00,169.00 L672.00,170.00 L673.00,170.00 L674.00,170.00 L675.00,170.00 L676.00,170.00 L677.00,170.00 L678.00,171.00 L679.00,172.00 L680.00,172.00 L681.00,172.00 L682.00,172.00 L683.00,172.00 L684.00,172.00 L685.00,173.00 L686.00,174.00 L687.00,175.00 L688.00,176.00 L689.00,177.00 L690.00,177.00 L691.00,177.00 L692.00,177.00 L693.00,177.00 L694.00,177.00 L695.00,178.00 L696.00,179.00 L697.00,179.00 L698.00,179.00 L699.00,179.00 L700.00,179.00 L701.00,179.00 L702.00,179.00 L703.00,179.00 L704.00,179.00 L705.00,179.00 L706.00,180.00 L707.00,181.00 L708.00,182.00 L709.00,182.00 L710.00,182.00 L711.00,182.00 L712.00,182.00 L713.00,183.00 L714.00,184.00 L715.00,184.00 L716.00,184.00 L717.00,184.00 L718.00,184.00 L719.00,184.00 L720.00,184.00 L721.00,184.00 L722.00,184.00 L723.00,184.00 L724.00,184.00 L725.00,185.00 L726.00,186.00 L727.00,186.00 L728.00,186.00 L729.00,186.00 L730.00,186.00 L731.00,186.00 L732.00,187.00 L733.00,188.00 L734.00,188.00 L735.00,188.00 L736.00,188.00 L737.00,188.00 L738.00,188.00 L739.00,188.00 L740.00,188.00 L741.00,188.00 L742.00,188.00 L743.00,188.00 L744.00,188.00 L745.00,188.00 L746.00,188.00 L747.00,188.00 L748.00,188.00 L749.00,188.00 L750.00,188.00 L751.00,188.00 L752.00,188.00 L753.00,188.00 L754.00,188.00 L755.00,188.00 L756.00,188.00 L757.00,188.00 L758.00,188.00 L759.00,188.00 L760.00,188.00" fill="none" stroke="black" stroke-width="10" stroke-linecap="round" stroke-linejoin="round"/>
<path d="M200.00,135.00 L200.00,136.00" fill="none" stroke="black" stroke-width="10" stroke-linecap="round" stroke-linejoin="round"/>
<path d="M200.00,135.00 L201.00,136.00" fill="none" stroke="black" stroke-width="10" stroke-linecap="round" stroke-linejoin="round"/>
<path d="M200.00,136.00 L201.00,136.00" fill="none" stroke="black" stroke-width="10" stroke-linecap="round" stroke-linejoin="round"/>
<path d="M200.00,136.00 L200.00,137.00" fill="none" stroke="black" stroke-width="10" stroke-linecap="round" stroke-linejoin="round"/>
<path d="M201.00,136.00 L200.00,137.00" fill="none" stroke="black" stroke-width="10" stroke-linecap="round" stroke-linejoin="round"/>
<path d="M200.00,137.00 L200.00,138.00 L200.00,139.00 L200.00,140.00 L200.00,141.00 L201.00,142.00 L202.00,143.00 L202.00,144.00 L202.00,145.00 L202.00,146.00 L202.00,147.00 L202.00,148.00" fill="none" stroke="black" stroke-width="10" stroke-linecap="round" stroke-linejoin="round"/>
<path d="M202.00,148.00 L201.00,149.00" fill="none" stroke="black" stroke-width="10" stroke-linecap="round" stroke-linejoin="round"/>
<path d="M202.00,148.00 L202.00,149.00" fill="none" stroke="black" stroke-width="10" stroke-linecap="round" stroke-linejoin="round"/>
<path d="M197.00,149.00 L198.00,149.00 L199.00,149.00 L200.00,149.00 L201.00,149.00" fill="none" stroke="black" stroke-width="10" stroke-linecap="round" stroke-linejoin="round"/>
<path d="M197.00,149.00 L196.00,150.00 L195.00,151.00 L194.00,152.00 L193.00,153.00 L192.00,154.00 L191.00,155.00 L190.00,156.00 L190.00,157.00 L190.00,158.00 L190.00,159.00 L190.00,160.00 L189.00,161.00 L189.00,162.00 L188.00,163.00 L187.00,164.00 L187.00,165.00 L186.00,166.00 L186.00,167.00 L186.00,168.00 L186.00,169.00 L186.00,170.00 L186.00,171.00 L186.00,172.00 L186.00,173.00 L186.00,174.00 L186.00,175.00 L186.00,176.00 L186.00,177.00 L186.00,178.00 L186.00,179.00 L185.00,180.00 L184.00,181.00 L184.00,182.00 L184.00,183.00 L184.00,184.00 L184.00,185.00 L183.00,186.00 L182.00,187.00 L182.00,188.00 L181.00,189.00 L181.00,190.00 L181.00,191.00 L181.00,192.00 L181.00,193.00 L181.00,194.00 L181.00,195.00 L181.00,196.00 L181.00,197.00 L181.00,198.00 L181.00,199.00 L181.00,200.00 L181.00,201.00 L181.00,202.00 L180.00,203.00 L179.00,204.00 L179.00,205.00 L179.00,206.00 L179.00,207.00 L179.00,208.00 L179.00,209.00 L178.00,210.00 L177.00,211.00 L177.00,212.00 L176.00,213.00 L176.00,214.00 L176.00,215.00 L176.00,216.00 L176.00,217.00 L176.00,218.00 L176.00,219.00 L176.00,220.00 L176.00,221.00 L176.00,222.00 L176.00,223.00 L176.00,224.00 L176.00,225.00 L176.00,226.00 L175.00,227.00 L175.00,228.00 L174.00,229.00 L174.00,230.00 L174.00,231.00 L174.00,232.00 L174.00,233.00 L173.00,234.00 L173.00,235.00 L172.00,236.00 L171.00,236.00 L170.00,237.00 L170.00,238.00 L170.00,239.00 L170.00,240.00 L170.00,241.00 L169.00,242.00 L168.00,243.00 L168.00,244.00 L167.00,245.00 L167.00,246.00 L167.00,247.00 L167.00,248.00 L167.00,249.00 L167.00,250.00 L167.00,251.00 L167.00,252.00 L167.00,253.00 L167.00,254.00 L166.00,255.00 L165.00,256.00 L165.00,257.00 L165.00,258.00 L165.00,259.00 L165.00,260.00 L164.00,261.00 L163.00,262.00 L163.00,263.00 L162.00,264.00 L162.00,265.00 L162.00,266.00 L162.00,267.00 L162.00,268.00 L162.00,269.00 L162.00,270.00 L162.00,271.00 L162.00,272.00 L161.00,273.00 L160.00,274.00 L160.00,275.00 L161.00,276.00 L162.00,277.00 L163.00,277.00 L164.00,277.00 L165.00,277.00 L166.00,277.00 L167.00,277.00 L168.00,277.00 L169.00,277.00 L170.00,277.00 L171.00,277.00 L172.00,277.00 L173.00,277.00 L174.00,277.00 L175.00,277.00 L176.00,277.00 L177.00,277.00 L178.00,277.00 L179.00,277.00 L180.00,277.00 L181.00,277.00 L182.00,277.00 L183.00,277.00 L184.00,277.00 L185.00,277.00 L186.00,277.00 L187.00,277.00 L188.00,277.00 L189.00,277.00 L190.00,277.00 L191.00,277.00 L192.00,277.00 L193.00,277.00 L194.00,277.00 L195.00,277.00 L196.00,277.00 L197.00,277.00 L198.00,277.00 L199.00,277.00 L200.00,277.00 L201.00,277.00 L202.00,277.00 L203.00,277.00 L204.00,277.00 L205.00,277.00 L206.00,277.00 L207.00,277.00 L208.00,277.00 L209.00,277.00 L210.00,277.00 L211.00,277.00 L212.00,277.00 L213.00,277.00 L214.00,277.00 L215.00,277.00 L216.00,277.00 L217.00,277.00 L218.00,277.00 L219.00,277.00 L220.00,277.00 L221.00,277.00 L222.00,277.00 L223.00,277.00 L224.00,277.00 L225.00,277.00 L226.00,277.00 L227.00,277.00 L228.00,277.00 L229.00,277.00 L230.00,277.00 L231.00,277.00 L232.00,277.00 L233.00,277.00 L234.00,277.00 L235.00,277.00 L236.00,277.00 L237.00,277.00 L238.00,277.00 L239.00,277.00 L240.00,277.00 L241.00,277.00" fill="none" stroke="black" stroke-width="10" stroke-linecap="round" stroke-linejoin="round"/>
<path d="M201.00,149.00 L202.00,149.00" fill="none" stroke="black" stroke-width="10" stroke-linecap="round" stroke-linejoin="round"/>
<path d="M202.00,149.00 L203.00,150.00 L204.00,151.00 L205.00,152.00 L206.00,153.00 L207.00,154.00 L207.00,155.00 L207.00,156.00 L207.00,157.00 L207.00,158.00 L208.00,159.00 L209.00,160.00 L209.00,161.00 L209.00,162.00 L209.00,163.00 L209.00,164.00 L209.00,165.00 L210.00,166.00 L211.00,167.00 L212.00,168.00 L212.00,169.00 L212.00,170.00 L212.00,171.00 L212.00,172.00 L213.00,173.00 L214.00,174.00 L214.00,175.00 L214.00,176.00 L214.00,177.00 L214.00,178.00 L214.00,179.00 L215.00,180.00 L216.00,181.00 L216.00,182.00 L216.00,183.00 L216.00,184.00 L216.00,185.00 L216.00,186.00 L217.00,187.00 L218.00,188.00 L218.00,189.00 L218.00,190.00 L218.00,191.00 L218.00,192.00 L218.00,193.00 L219.00,194.00 L220.00,195.00 L221.00,196.00 L221.00,197.00 L221.00,198.00 L221.00,199.00 L221.00,200.00 L222.00,201.00 L223.00,202.00 L223.00,203.00 L223.00,204.00 L223.00,205.00 L223.00,206.00 L223.00,207.00 L224.00,208.00 L225.00,209.00 L226.00,210.00 L226.00,211.00 L226.00,212.00 L226.00,213.00 L226.00,214.00 L227.00,215.00 L228.00,216.00 L229.00,217.00 L230.00,218.00 L230.00,219.00 L230.00,220.00 L230.00,221.00 L230.00,222.00 L230.00,223.00 L230.00,224.00 L231.00,225.00 L232.00,226.00 L232.00,227.00 L232.00,228.00 L232.00,229.00 L232.00,230.00 L232.00,231.00 L232.00,232.00 L232.00,233.00 L232.00,234.00 L232.00,235.00 L233.00,236.00 L234.00,237.00 L235.00,238.00 L235.00,239.00 L235.00,240.00 L235.00,241.00 L235.00,242.00 L236.00,243.00 L237.00,244.00 L237.00,245.00 L237.00,246.00 L237.00,247.00 L237.00,248.00 L237.00,249.00 L238.00,250.00 L239.00,251.00 L240.00,252.00 L240.00,253.00 L240.00,254.00 L240.00,255.00 L240.00,256.00 L241.00,257.00 L242.00,258.00 L242.00,259.00 L242.00,260.00 L242.00,261.00 L242.00,262.00 L242.00,263.00 L242.00,264.00 L242.00,265.00 L242.00,266.00 L242.00,267.00 L242.00,268.00 L242.00,269.00 L242.00,270.00 L242.00,271.00 L242.00,272.00 L242.00,273.00 L242.00,274.00 L242.00,275.00 L242.00,276.00" fill="none" stroke="black" stroke-width="10" stroke-linecap="round" stroke-linejoin="round"/>
<path d="M775.00,167.00 L775.00,168.00" fill="none" stroke="black" stroke-width="10" stroke-linecap="round" stroke-linejoin="round"/>
<path d="M775.00,167.00 L776.00,168.00" fill="none" stroke="black" stroke-width="10" stroke-linecap="round" stroke-linejoin="round"/>
<path d="M775.00,168.00 L776.00,168.00" fill="none" stroke="black" stroke-width="10" stroke-linecap="round" stroke-linejoin="round"/>
<path d="M775.00,168.00 L775.00,169.00" fill="none" stroke="black" stroke-width="10" stroke-linecap="round" stroke-linejoin="round"/>
<path d="M776.00,168.00 L775.00,169.00" fill="none" stroke="black" stroke-width="10" stroke-linecap="round" stroke-linejoin="round"/>
<path d="M775.00,169.00 L775.00,170.00 L775.00,171.00 L775.00,172.00 L775.00,173.00 L775.00,174.00 L774.00,175.00 L773.00,176.00 L772.00,177.00 L771.00,178.00 L771.00,179.00 L770.00,180.00 L769.00,181.00 L768.00,182.00 L767.00,183.00 L767.00,184.00 L766.00,185.00 L766.00,186.00 L766.00,187.00 L765.00,188.00 L764.00,188.00 L763.00,188.00 L762.00,188.00" fill="none" stroke="black" stroke-width="10" stroke-linecap="round" stroke-linejoin="round"/>
<path d="M760.00,188.00 L761.00,188.00" fill="none" stroke="black" stroke-width="10" stroke-linecap="round" stroke-linejoin="round"/>
<path d="M760.00,188.00 L761.00,189.00" fill="none" stroke="black" stroke-width="10" stroke-linecap="round" stroke-linejoin="round"/>
<path d="M761.00,188.00 L762.00,188.00" fill="none" stroke="black" stroke-width="10" stroke-linecap="round" stroke-linejoin="round"/>
<path d="M761.00,188.00 L761.00,189.00" fill="none" stroke="black" stroke-width="10" stroke-linecap="round" stroke-linejoin="round"/>
<path d="M762.00,188.00 L761.00,189.00" fill="none" stroke="black" stroke-width="10" stroke-linecap="round" stroke-linejoin="round"/>
<path d="M242.00,276.00 L241.00,277.00" fill="none" stroke="black" stroke-width="10" stroke-linecap="round" stroke-linejoin="round"/>
<path d="M242.00,276.00 L242.00,277.00" fill="none" stroke="black" stroke-width="10" stroke-linecap="round" stroke-linejoin="round"/>
<path d="M242.00,276.00 L243.00,277.00" fill="none" stroke="black" stroke-width="10" stroke-linecap="round" stroke-linejoin="round"/>
<path d="M241.00,277.00 L242.00,277.00" fill="none" stroke="black" stroke-width="10" stroke-linecap="round" stroke-linejoin="round"/>
<path d="M242.00,277.00 L243.00,277.00" fill="none" stroke="black" stroke-width="10" stroke-linecap="round" stroke-linejoin="round"/>
<path d="M140.00,324.00 L141.00,324.00 L142.00,324.00 L143.00,324.00 L144.00,324.00 L145.00,324.00 L146.00,324.00 L147.00,324.00 L148.00,324.00 L149.00,324.00 L150.00,324.00 L151.00,324.00 L152.00,324.00 L153.00,324.00 L154.00,324.00 L155.00,324.00 L156.00,324.00 L157.00,324.00 L158.00,324.00 L159.00,324.00 L160.00,324.00 L161.00,324.00 L162.00,324.00 L163.00,324.00 L164.00,324.00 L165.00,324.00 L166.00,324.00 L167.00,324.00 L168.00,324.00 L169.00,324.00 L170.00,324.00 L171.00,324.00 L172.00,324.00 L173.00,324.00 L174.00,324.00 L175.00,324.00 L176.00,324.00 L177.00,324.00 L178.00,324.00 L179.00,324.00 L180.00,324.00 L181.00,324.00 L182.00,324.00 L183.00,324.00 L184.00,324.00 L185.00,324.00 L186.00,324.00 L187.00,324.00 L188.00,324.00 L189.00,324.00 L190.00,324.00 L191.00,324.00 L192.00,324.00 L193.00,324.00 L194.00,324.00 L195.00,324.00 L196.00,324.00 L197.00,324.00 L198.00,324.00 L199.00,324.00 L200.00,324.00 L201.00,324.00 L202.00,324.00 L203.00,324.00 L204.00,324.00 L205.00,324.00 L206.00,324.00 L207.00,324.00 L208.00,324.00 L209.00,324.00 L210.00,324.00 L211.00,324.00 L212.00,324.00 L213.00,324.00 L214.00,324.00 L215.00,324.00 L216.00,324.00 L217.00,324.00 L218.00,324.00 L219.00,324.00 L220.00,324.00 L221.00,324.00 L222.00,324.00 L223.00,324.00 L224.00,324.00 L225.00,324.00 L226.00,324.00 L227.00,324.00 L228.00,324.00 L229.00,324.00 L230.00,324.00 L231.00,324.00 L232.00,324.00 L233.00,324.00 L234.00,324.00 L235.00,324.00 L236.00,324.00 L237.00,324.00 L238.00,324.00 L239.00,324.00 L240.00,324.00 L241.00,324.00 L242.00,324.00 L243.00,324.00 L244.00,324.00 L245.00,324.00 L246.00,324.00 L247.00,324.00 L248.00,324.00 L249.00,324.00 L250.00,324.00 L251.00,324.00 L252.00,324.00 L253.00,324.00 L254.00,324.00 L255.00,324.00 L256.00,324.00 L257.00,324.00 L258.00,324.00 L259.00,324.00 L260.00,325.00 L260.00,326.00 L260.00,327.00 L260.00,328.00" fill="none" stroke="black" stroke-width="10" stroke-linecap="round" stroke-linejoin="round"/>
<path d="M140.00,324.00 L139.00,325.00 L139.00,326.00 L139.00,327.00 L139.00,328.00 L139.00,329.00 L139.00,330.00 L139.00,331.00 L139.00,332.00 L139.00,333.00 L138.00,334.00 L137.00,335.00 L136.00,336.00 L135.00,337.00 L135.00,338.00 L134.00,339.00 L134.00,340.00 L134.00,341.00 L134.00,342.00 L134.00,343.00 L134.00,344.00 L134.00,345.00 L134.00,346.00 L134.00,347.00 L133.00,348.00 L132.00,349.00 L131.00,350.00 L130.00,351.00 L130.00,352.00 L129.00,353.00 L129.00,354.00 L129.00,355.00 L129.00,356.00 L129.00,357.00 L128.00,358.00 L128.00,359.00 L127.00,360.00 L127.00,361.00 L127.00,362.00 L127.00,363.00 L127.00,364.00 L126.00,365.00 L126.00,366.00 L125.00,367.00 L125.00,368.00 L125.00,369.00 L125.00,370.00 L125.00,371.00 L124.00,372.00 L123.00,373.00 L123.00,374.00 L123.00,375.00 L123.00,376.00 L123.00,377.00 L122.00,378.00 L121.00,379.00 L121.00,380.00 L120.00,381.00 L120.00,382.00 L120.00,383.00 L120.00,384.00 L120.00,385.00 L120.00,386.00 L120.00,387.00 L120.00,388.00 L120.00,389.00 L120.00,390.00 L119.00,391.00 L118.00,392.00 L118.00,393.00 L118.00,394.00 L118.00,395.00 L118.00,396.00 L117.00,397.00 L116.00,398.00 L116.00,399.00 L115.00,400.00 L115.00,401.00 L115.00,402.00 L115.00,403.00 L115.00,404.00 L114.00,405.00 L114.00,406.00 L113.00,407.00 L113.00,408.00 L113.00,409.00 L113.00,410.00 L113.00,411.00 L112.00,412.00 L112.00,413.00 L111.00,414.00 L111.00,415.00 L111.00,416.00 L111.00,417.00 L111.00,418.00 L111.00,419.00 L111.00,420.00 L111.00,421.00 L111.00,422.00 L110.00,423.00 L109.00,424.00 L109.00,425.00 L109.00,426.00 L109.00,427.00 L109.00,428.00 L109.00,429.00 L108.00,430.00 L107.00,431.00 L107.00,432.00 L106.00,433.00 L106.00,434.00 L106.00,435.00 L106.00,436.00 L106.00,437.00 L106.00,438.00 L106.00,439.00 L106.00,440.00 L106.00,441.00 L105.00,442.00 L104.00,443.00 L104.00,444.00 L104.00,445.00 L104.00,446.00 L104.00,447.00 L103.00,448.00 L102.00,449.00 L102.00,450.00 L101.00,451.00 L101.00,452.00 L101.00,453.00 L101.00,454.00 L101.00,455.00 L100.00,456.00 L100.00,457.00 L99.00,458.00 L98.00,459.00 L98.00,460.00 L97.00,461.00 L97.00,462.00 L97.00,463.00 L97.00,464.00 L96.00,465.00 L95.00,466.00 L94.00,467.00 L93.00,468.00 L93.00,469.00 L92.00,470.00 L92.00,471.00 L92.00,472.00 L92.00,473.00 L92.00,474.00 L92.00,475.00 L92.00,476.00 L92.00,477.00 L92.00,478.00 L91.00,479.00 L90.00,480.00 L89.00,481.00 L88.00,482.00 L88.00,483.00 L87.00,484.00 L87.00,485.00 L87.00,486.00 L87.00,487.00 L87.00,488.00 L87.00,489.00 L87.00,490.00 L87.00,491.00 L87.00,492.00 L86.00,493.00 L86.00,494.00 L85.00,495.00 L84.00,496.00 L83.00,497.00 L82.00,497.00 L81.00,497.00 L80.00,497.00 L79.00,497.00 L78.00,497.00 L77.00,497.00 L76.00,497.00 L75.00,497.00 L74.00,497.00 L73.00,497.00 L72.00,497.00 L71.00,497.00 L70.00,497.00 L69.00,497.00 L68.00,497.00 L67.00,497.00 L66.00,497.00 L65.00,497.00 L64.00,497.00 L63.00,497.00 L62.00,497.00 L61.00,497.00 L60.00,497.00 L59.00,497.00 L58.00,497.00 L57.00,497.00 L56.00,497.00 L55.00,497.00 L54.00,497.00 L53.00,497.00 L52.00,497.00 L51.00,497.00 L50.00,497.00 L49.00,497.00 L48.00,497.00 L47.00,497.00 L46.00,497.00 L45.00,497.00 L44.00,497.00 L43.00,497.00 L42.00,497.00 L41.00,496.00" fill="none" stroke="black" stroke-width="10" stroke-linecap="round" stroke-linejoin="round"/>
<path d="M260.00,328.00 L260.00,329.00" fill="none" stroke="black" stroke-width="10" stroke-linecap="round" stroke-linejoin="round"/>
<path d="M260.00,328.00 L261.00,329.00" fill="none" stroke="black" stroke-width="10" stroke-linecap="round" stroke-linejoin="round"/>
<path d="M260.00,329.00 L261.00,329.00" fill="none" stroke="black" stroke-width="10" stroke-linecap="round" stroke-linejoin="round"/>
<path d="M260.00,329.00 L260.00,330.00" fill="none" stroke="black" stroke-width="10" stroke-linecap="round" stroke-linejoin="round"/>
<path d="M261.00,329.00 L260.00,330.00" fill="none" stroke="black" stroke-width="10" stroke-linecap="round" stroke-linejoin="round"/>
<path d="M41.00,494.00 L40.00,495.00" fill="none" stroke="black" stroke-width="10" stroke-linecap="round" stroke-linejoin="round"/>
<path d="M41.00,494.00 L41.00,495.00" fill="none" stroke="black" stroke-width="10" stroke-linecap="round" stroke-linejoin="round"/>
<path d="M40.00,495.00 L41.00,495.00" fill="none" stroke="black" stroke-width="10" stroke-linecap="round" stroke-linejoin="round"/>
<path d="M40.00,495.00 L41.00,496.00" fill="none" stroke="black" stroke-width="10" stroke-linecap="round" stroke-linejoin="round"/>
<path d="M41.00,495.00 L41.00,496.00" fill="none" stroke="black" stroke-width="10" stroke-linecap="round" stroke-linejoin="round"/>
</svg>