<?xml version="1.0" standalone="no"?>
<!DOCTYPE svg PUBLIC "-//W3C//DTD SVG 20010904//EN"
 "http://www.w3.org/TR/2001/REC-SVG-20010904/DTD/svg10.dtd">
<svg version="1.0" xmlns="http://www.w3.org/2000/svg"
 width="300.000000pt" height="193.000000pt" viewBox="0 0 300.000000 193.000000"
 preserveAspectRatio="xMidYMid meet">
<metadata>
Created by potrace 1.10, written by Peter Selinger 2001-2011
</metadata>
<g transform="translate(0.000000,193.000000) scale(0.100000,-0.100000)"
fill="#000000" stroke="none">
<path d="M642 1783 c-16 -22 -22 -46 -22 -83 0 -31 -4 -49 -10 -45 -6 4 -10
-8 -10 -28 0 -19 -7 -50 -15 -70 -8 -19 -11 -37 -8 -41 4 -3 1 -6 -6 -6 -7 0
-9 -4 -6 -10 3 -5 1 -10 -4 -10 -6 0 -11 -18 -11 -41 0 -24 -4 -38 -10 -34 -5
3 -10 -3 -10 -14 0 -12 -4 -21 -10 -21 -5 0 -12 -27 -16 -60 -3 -33 -10 -57
-15 -54 -5 3 -9 -10 -9 -28 0 -25 -3 -29 -10 -18 -7 11 -10 6 -10 -21 0 -20
-7 -42 -15 -49 -8 -7 -15 -23 -15 -36 0 -13 -4 -24 -10 -24 -5 0 -10 -9 -10
-19 0 -11 -4 -23 -10 -26 -5 -3 -10 -26 -10 -51 0 -24 -4 -44 -8 -44 -13 0
-42 -74 -42 -109 0 -19 -4 -30 -10 -26 -6 4 -10 -13 -10 -44 0 -27 -4 -51 -10
-53 -5 -2 -13 -38 -16 -80 -4 -43 -11 -75 -15 -72 -5 3 -9 -9 -9 -25 0 -17 -4
-31 -9 -31 -5 0 -12 -22 -16 -50 -4 -27 -11 -50 -16 -50 -5 0 -9 -16 -9 -35 0
-19 -4 -35 -10 -35 -5 0 -10 -13 -10 -29 0 -17 -5 -33 -10 -36 -6 -3 -10 -15
-10 -26 0 -11 -11 -42 -25 -69 -14 -27 -25 -58 -25 -70 0 -11 -4 -20 -10 -20
-5 0 -10 -11 -10 -25 l0 -25 113 0 c101 0 113 2 124 20 7 10 10 26 7 35 -3 8
-1 15 5 15 6 0 11 11 11 25 0 14 5 25 10 25 6 0 10 9 10 20 0 11 5 20 10 20 6
0 10 11 10 25 0 14 5 25 10 25 6 0 10 15 10 34 0 19 5 38 10 41 6 3 7 17 4 30
-3 12 -1 26 5 29 6 4 11 18 11 32 0 13 5 24 10 24 6 0 10 16 10 35 0 19 4 35
9 35 5 0 12 20 15 45 4 25 11 45 17 45 5 0 9 14 9 31 0 17 4 28 10 24 6 -3 10
3 10 14 0 21 5 21 200 21 l200 0 0 -26 c0 -14 4 -23 10 -19 6 4 10 -8 10 -29
0 -19 5 -36 10 -38 6 -2 13 -36 17 -76 3 -39 10 -72 14 -72 5 0 9 -30 9 -67 0
-44 3 -63 9 -54 8 13 12 -15 21 -152 1 -9 5 -17 11 -17 5 0 9 -7 9 -15 0 -8 5
-15 11 -15 5 0 8 -4 4 -9 -3 -5 2 -17 11 -26 13 -13 36 -15 128 -13 l111 3 3
49 c2 27 -2 54 -7 59 -6 6 -11 30 -11 54 0 24 -4 43 -10 43 -5 0 -10 18 -10
40 0 22 -4 40 -9 40 -4 0 -11 28 -15 62 -3 35 -11 65 -16 66 -6 2 -10 15 -10
28 0 13 -4 24 -10 24 -5 0 -10 11 -10 25 0 14 -4 25 -9 25 -4 0 -6 11 -4 24 3
13 0 27 -6 30 -6 4 -11 18 -11 32 0 13 -4 24 -10 24 -5 0 -10 11 -10 25 0 14
-4 25 -10 25 -5 0 -10 16 -10 35 0 19 -4 35 -10 35 -5 0 -10 15 -10 33 0 17
-7 45 -15 61 -8 15 -15 39 -15 53 0 13 -4 21 -10 18 -6 -4 -10 6 -10 24 0 17
-9 47 -20 66 -11 20 -18 40 -15 45 3 5 1 11 -5 15 -5 3 -10 17 -10 31 0 13 -4
24 -10 24 -5 0 -10 7 -10 15 0 8 -4 15 -9 15 -5 0 -12 20 -15 45 -4 25 -11 45
-17 45 -5 0 -9 12 -9 26 0 14 -4 23 -10 19 -5 -3 -10 3 -10 14 0 11 -5 23 -10
26 -6 4 -10 12 -9 18 2 13 -11 49 -20 57 -13 11 -81 156 -81 173 0 10 -4 15
-10 12 -5 -3 -10 1 -10 9 0 9 -4 16 -10 16 -5 0 -12 16 -16 35 -3 19 -10 35
-15 35 -5 0 -9 12 -9 28 0 18 -3 23 -9 14 -6 -10 -10 -9 -14 7 -5 21 -27 30
-27 11 0 -14 -37 -13 -42 2 -2 6 -14 -2 -26 -19z m69 -53 c6 -16 15 -30 20
-30 5 0 9 -11 9 -25 0 -14 5 -25 10 -25 6 0 10 -7 10 -16 0 -8 5 -12 10 -9 6
3 10 -5 10 -19 0 -13 7 -31 15 -40 8 -8 15 -25 15 -38 0 -18 2 -20 10 -8 8 12
10 9 10 -12 0 -16 5 -28 11 -28 6 0 9 -9 6 -20 -3 -10 -2 -20 2 -22 10 -5 51
-88 51 -104 0 -8 4 -14 8 -14 12 0 33 -50 27 -61 -4 -5 -1 -9 4 -9 6 0 11 -12
11 -26 0 -14 4 -23 10 -19 6 4 10 -7 10 -24 0 -17 4 -31 9 -31 5 0 11 -18 15
-40 3 -22 11 -40 16 -40 6 0 10 -12 10 -27 0 -22 2 -25 10 -13 7 11 10 2 10
-32 0 -29 4 -48 11 -48 8 0 10 -17 5 -55 -6 -51 -5 -55 14 -55 16 0 20 -7 20
-35 0 -19 5 -35 10 -35 6 0 10 -17 10 -38 0 -26 7 -45 20 -57 12 -11 22 -37
26 -67 4 -26 11 -51 15 -54 5 -3 9 -14 9 -25 0 -10 5 -19 10 -19 6 0 10 -11
10 -25 0 -14 4 -25 9 -25 6 0 13 -31 17 -70 3 -38 10 -67 15 -64 5 3 9 -19 9
-48 0 -38 3 -49 10 -38 7 11 10 4 10 -25 0 -22 4 -55 9 -73 l10 -32 -80 0
c-78 0 -79 0 -79 25 0 14 -4 25 -10 25 -5 0 -10 14 -10 30 0 17 -4 30 -10 30
-5 0 -10 23 -10 50 0 28 -4 50 -9 50 -8 0 -13 34 -25 178 -2 23 -6 46 -10 49
-3 3 -6 19 -6 35 0 17 -4 27 -10 23 -6 -4 -10 5 -10 19 0 14 -4 26 -10 26 -5
0 -10 5 -10 11 0 5 5 7 10 4 6 -4 10 7 10 24 0 18 -5 31 -12 31 -9 0 -8 4 2
10 10 6 -74 10 -247 10 l-263 0 0 -25 c0 -14 -4 -25 -10 -25 -5 0 -10 -14 -10
-31 0 -17 -4 -28 -10 -24 -6 4 -10 -5 -10 -20 0 -14 -7 -42 -15 -62 -8 -19
-15 -48 -15 -64 0 -16 -4 -29 -10 -29 -5 0 -10 -11 -10 -25 0 -14 -4 -25 -10
-25 -5 0 -10 -15 -10 -34 0 -19 -5 -38 -11 -41 -5 -4 -9 -17 -8 -28 2 -12 -2
-32 -9 -43 -6 -12 -8 -24 -5 -28 3 -3 1 -6 -5 -6 -7 0 -12 -9 -12 -21 0 -11
-4 -17 -10 -14 -6 4 -10 -7 -10 -24 0 -17 -4 -31 -10 -31 -5 0 -10 -11 -10
-25 0 -24 -3 -25 -60 -25 -55 0 -75 10 -50 25 5 3 10 15 10 26 0 10 5 19 10
19 6 0 10 9 10 19 0 11 4 22 9 26 5 3 13 30 16 60 4 30 11 55 16 55 5 0 9 14
9 31 0 16 4 28 9 24 5 -3 13 24 16 60 4 36 11 65 16 65 5 0 9 11 9 25 0 14 4
25 9 25 8 0 17 61 21 133 1 9 5 17 11 17 5 0 9 25 9 55 0 30 5 55 10 55 6 0
10 7 10 15 0 8 5 15 10 15 6 0 10 13 10 28 0 16 7 44 17 62 9 18 18 47 19 64
6 57 16 96 25 96 5 0 9 7 9 15 0 8 4 15 9 15 6 0 13 20 17 45 3 25 10 45 15
45 5 0 9 12 9 26 0 14 4 23 10 19 6 -4 10 8 10 29 0 34 27 108 43 114 4 2 7
22 7 43 0 24 4 38 10 34 9 -5 15 23 11 48 0 4 3 7 8 7 5 0 13 25 16 55 4 30
11 58 16 61 5 3 9 24 9 48 0 35 13 66 28 66 1 0 8 -13 13 -30z"/>
<path d="M728 1429 c-10 -17 -18 -37 -18 -45 0 -8 -3 -14 -7 -14 -13 0 -33
-53 -33 -87 0 -18 -5 -33 -10 -33 -6 0 -10 -17 -10 -37 1 -21 -4 -60 -10 -88
-6 -27 -14 -63 -17 -79 -4 -20 -8 -24 -14 -15 -6 9 -9 1 -9 -23 0 -21 -3 -38
-8 -38 -8 0 -32 -71 -32 -95 0 -13 27 -15 195 -15 l195 0 0 35 c0 19 -5 35
-11 35 -7 0 -9 10 -5 24 3 14 2 28 -4 31 -5 3 -10 17 -10 31 0 13 -4 24 -10
24 -5 0 -10 16 -10 35 0 19 -4 35 -10 35 -5 0 -10 7 -10 15 0 8 -4 24 -10 35
-5 11 -14 29 -20 40 -5 10 -7 26 -4 35 3 8 1 15 -5 15 -6 0 -11 14 -11 31 0
17 -4 28 -10 24 -6 -4 -10 8 -10 30 0 22 -4 34 -10 30 -6 -4 -10 8 -10 30 0
22 -6 38 -15 41 -8 4 -12 10 -9 15 3 5 -1 9 -8 9 -7 0 -21 -14 -30 -31z m32
-121 c0 -22 3 -29 9 -20 5 9 11 -8 15 -47 4 -35 11 -59 17 -56 5 4 9 -8 9 -25
0 -17 4 -29 9 -26 5 3 11 -7 14 -22 3 -15 12 -52 22 -82 9 -30 19 -70 22 -87
l5 -33 -126 0 c-118 0 -126 1 -126 19 0 11 4 21 9 23 5 2 11 17 13 33 1 17 5
32 8 35 17 17 30 55 30 90 0 22 4 40 9 40 5 0 12 21 15 48 14 110 23 142 37
142 5 0 9 -15 9 -32z"/>
<path d="M1875 1619 c-4 -5 -19 -8 -34 -4 -19 4 -30 0 -41 -15 -8 -11 -20 -20
-27 -20 -7 0 -13 -4 -13 -10 0 -5 -9 -10 -19 -10 -10 0 -21 -7 -25 -15 -3 -8
-14 -15 -23 -15 -10 0 -25 -9 -33 -20 -8 -11 -21 -20 -28 -20 -19 0 -172 -157
-172 -175 0 -8 -3 -15 -7 -15 -11 0 -43 -58 -43 -76 0 -8 -4 -14 -10 -14 -6 0
-10 -53 -10 -140 0 -87 -4 -140 -10 -140 -6 0 -10 -65 -10 -175 0 -110 4 -175
10 -175 6 0 10 -16 10 -35 0 -19 5 -35 10 -35 6 0 10 -11 10 -25 0 -20 5 -25
25 -25 20 0 25 -5 25 -26 0 -14 4 -23 10 -19 6 3 10 -1 10 -9 0 -14 69 -87
142 -151 25 -22 99 -60 111 -57 4 1 7 -2 7 -7 0 -9 31 -17 103 -28 20 -3 37
-9 37 -14 0 -5 32 -9 70 -9 39 0 70 -4 70 -8 0 -5 6 -9 13 -9 6 -1 67 -5 134
-9 67 -4 120 -11 117 -16 -3 -4 94 -8 215 -8 141 0 221 4 221 10 0 6 16 10 35
10 l35 0 0 66 c0 84 -12 97 -96 102 -35 2 -61 8 -58 13 3 5 -20 9 -50 9 -31 0
-56 4 -56 9 0 5 -52 12 -115 16 -63 4 -115 11 -115 16 0 5 -31 9 -70 9 -40 0
-70 4 -70 10 0 6 -37 10 -90 10 -57 0 -90 4 -90 11 0 6 -10 9 -22 8 -13 -1
-32 1 -43 6 -57 21 -75 31 -75 37 0 5 -11 8 -25 8 -14 0 -25 4 -25 8 0 5 -11
15 -25 22 -14 7 -25 19 -25 27 0 7 -4 12 -8 10 -4 -1 -20 10 -35 26 -16 15
-32 27 -38 27 -6 0 -7 5 -4 10 3 6 2 10 -4 10 -5 0 -15 16 -22 35 -7 19 -17
35 -21 35 -11 0 -10 217 2 238 5 9 12 43 15 75 4 31 11 57 16 57 5 0 9 15 9
33 0 21 7 38 20 47 11 8 20 19 20 25 0 15 39 91 45 88 16 -8 25 0 25 22 0 20
5 25 25 25 17 0 25 5 25 18 0 12 13 23 35 32 19 8 35 20 35 27 0 7 11 13 25
13 14 0 25 5 25 10 0 6 11 10 25 10 14 0 25 5 25 10 0 6 25 10 55 10 30 0 55
-4 55 -10 0 -5 16 -10 35 -10 19 0 35 -4 35 -10 0 -5 16 -10 35 -10 19 0 35
-5 35 -10 0 -6 14 -9 32 -8 17 1 33 -2 35 -8 2 -5 19 -8 38 -6 21 3 35 0 35
-7 0 -6 19 -11 46 -11 27 0 43 -4 39 -10 -3 -5 3 -10 14 -10 12 0 21 -4 21 -9
0 -5 20 -12 45 -15 25 -4 45 -11 45 -17 0 -5 16 -9 36 -9 21 0 33 -4 29 -10
-4 -6 10 -10 34 -10 23 0 41 -3 41 -8 0 -4 18 -6 41 -4 22 3 46 -1 52 -7 17
-17 52 -13 72 9 10 11 14 20 10 20 -4 0 2 8 13 19 12 10 22 26 22 35 0 10 5
14 10 11 6 -3 10 3 10 14 0 11 -9 22 -20 26 -11 3 -39 25 -62 48 -24 23 -55
48 -70 56 -16 8 -28 18 -28 23 0 4 -7 8 -15 8 -8 0 -15 4 -15 9 0 5 -25 13
-55 16 -30 4 -52 11 -49 16 3 5 -13 9 -36 9 -23 0 -39 4 -36 9 6 9 -40 19
-106 23 -21 1 -38 6 -38 10 0 4 -11 8 -25 8 -14 0 -25 5 -25 10 0 6 -20 10
-45 10 -25 0 -45 5 -45 10 0 6 -18 10 -39 10 -22 0 -43 5 -46 10 -4 7 -28 8
-65 4 -38 -4 -60 -3 -64 5 -9 14 -182 15 -191 0z m165 -49 c0 -6 28 -10 64
-10 36 0 67 -4 70 -9 3 -5 46 -12 96 -16 49 -4 87 -11 84 -16 -3 -5 9 -9 25
-9 17 0 31 -4 31 -9 0 -4 30 -11 67 -14 37 -3 69 -10 71 -16 2 -6 17 -11 33
-11 18 0 28 -4 24 -10 -4 -6 6 -10 24 -10 16 0 33 -5 36 -11 4 -5 12 -8 18 -6
16 6 96 -40 129 -74 14 -15 36 -30 47 -34 27 -8 27 -23 -1 -47 -20 -18 -32
-19 -103 -14 -44 4 -81 11 -83 16 -2 6 -19 10 -38 10 -19 0 -34 5 -34 10 0 6
-9 10 -20 10 -11 0 -20 5 -20 11 0 5 -4 7 -10 4 -5 -3 -27 3 -49 15 -22 11
-56 20 -76 20 -19 0 -35 5 -35 10 0 6 -15 10 -34 10 -19 0 -38 5 -41 10 -3 6
-19 10 -36 10 -16 0 -29 4 -29 10 0 5 -12 9 -27 9 -43 0 -103 12 -109 22 -7
13 -164 11 -164 -1 0 -5 -3 -9 -7 -9 -21 4 -74 -15 -89 -32 -9 -11 -23 -19
-31 -19 -7 0 -13 -4 -13 -10 0 -5 -9 -10 -21 -10 -12 0 -23 -8 -26 -20 -3 -10
-13 -22 -24 -25 -10 -3 -21 -16 -25 -28 -4 -12 -15 -29 -25 -38 -11 -9 -19
-21 -19 -27 0 -6 -4 -12 -8 -14 -15 -6 -62 -100 -62 -124 0 -13 -4 -24 -10
-24 -5 0 -10 -13 -10 -30 0 -16 -4 -30 -10 -30 -5 0 -10 -18 -10 -40 0 -22 -3
-40 -7 -40 -10 0 -7 -259 3 -285 4 -11 16 -27 26 -36 10 -9 18 -26 18 -38 0
-12 6 -21 16 -21 8 0 12 -4 9 -10 -3 -5 0 -10 8 -10 8 0 17 -7 21 -15 3 -8 11
-15 17 -15 13 0 49 -38 49 -52 0 -5 4 -7 10 -3 5 3 18 -3 30 -15 11 -11 28
-20 38 -20 10 0 24 -9 32 -20 8 -11 24 -20 35 -20 12 0 26 -5 32 -11 7 -7 62
-14 127 -17 64 -2 113 -9 110 -13 -3 -5 34 -9 83 -9 53 0 83 -4 74 -9 -11 -7
187 -29 212 -23 4 1 7 -3 7 -8 0 -6 23 -10 51 -10 31 0 48 -4 44 -10 -4 -6 17
-10 54 -10 36 0 61 -4 61 -11 0 -5 5 -7 10 -4 6 4 10 -7 10 -24 0 -28 -3 -31
-31 -31 -17 0 -28 -4 -24 -10 4 -7 -62 -10 -189 -10 -124 0 -196 4 -196 10 0
6 -31 10 -73 10 -40 0 -77 4 -83 9 -11 11 -94 20 -176 20 -31 0 -59 5 -63 11
-3 5 -22 10 -41 10 -19 0 -34 5 -34 10 0 6 -16 10 -35 10 -19 0 -35 5 -35 10
0 6 -9 10 -20 10 -11 0 -20 4 -20 9 0 5 -12 12 -26 15 -30 8 -56 30 -47 40 4
3 -1 6 -11 6 -19 0 -106 87 -106 107 0 7 -4 13 -10 13 -5 0 -10 7 -10 16 0 9
-16 31 -35 50 -25 23 -35 41 -35 63 0 16 -4 33 -10 36 -6 4 -10 63 -10 145 0
82 4 141 10 145 6 4 10 65 10 151 0 94 4 143 10 139 6 -4 10 5 10 19 0 14 4
26 9 26 5 0 13 10 17 22 3 12 17 32 30 45 13 13 24 30 24 38 0 8 7 15 15 15 8
0 39 25 68 55 29 30 59 55 65 55 7 0 12 5 12 10 0 6 9 10 20 10 11 0 20 7 20
15 0 8 7 15 15 15 8 0 15 5 15 10 0 6 8 10 18 10 10 0 27 7 38 15 10 8 34 15
52 15 20 0 31 4 27 10 -4 6 20 10 64 10 41 0 71 -4 71 -10z"/>
</g>
</svg>
